<?xml version="1.0" encoding="UTF-8"?>
<svg version="1.1" xmlns="http://www.w3.org/2000/svg" width="1080" height="517">
<path d="M0 0 C1.66052201 -0.00571457 3.32104011 -0.012683 4.98155212 -0.02079773 C9.45910318 -0.0386277 13.93645715 -0.03757961 18.41403294 -0.03185534 C22.168472 -0.02874761 25.92287407 -0.03487371 29.67730784 -0.04089409 C38.54483206 -0.05490541 47.41225988 -0.05340738 56.27978516 -0.04199219 C65.38887348 -0.0305242 74.49766692 -0.04457222 83.60671639 -0.07138866 C91.4619414 -0.09363717 99.31707447 -0.10016225 107.17232871 -0.09431225 C111.84860281 -0.09096207 116.52468815 -0.0932269 121.20093536 -0.11056328 C125.60393525 -0.12617627 130.00650307 -0.12192015 134.40948677 -0.10325813 C136.01210772 -0.09961105 137.61476173 -0.10256521 139.21735191 -0.11314392 C153.18927327 -0.19822699 166.69013003 1.7519836 179.19433594 8.40405273 C180.24878906 8.93514648 181.30324219 9.46624023 182.38964844 10.01342773 C203.67484175 21.13087533 218.35161176 40.39344494 226.18652344 62.85717773 C228.75864966 71.90946694 229.50853604 80.3058879 229.44433594 89.71655273 C229.45207031 90.86961914 229.45980469 92.02268555 229.46777344 93.21069336 C229.46390625 94.87841797 229.46390625 94.87841797 229.45996094 96.57983398 C229.45770508 97.57926025 229.45544922 98.57868652 229.453125 99.60839844 C229.18017598 102.55702037 228.34108926 104.69370173 227.19433594 107.40405273 C195.88943884 107.44964075 164.58455049 107.48505285 133.27962811 107.50618339 C129.58697207 107.50868492 125.8943161 107.51127355 122.20166016 107.51391602 C121.46649354 107.51444064 120.73132693 107.51496526 119.97388254 107.51550578 C108.0574152 107.52421738 96.14096708 107.53999148 84.22451116 107.55835833 C72.00454861 107.57703641 59.78459614 107.58816502 47.5646199 107.59222972 C40.01928639 107.59497914 32.47400721 107.60367466 24.92869042 107.61988567 C19.15088725 107.63166971 13.37311919 107.63296939 7.5953064 107.6302681 C5.2192336 107.63082074 2.84315884 107.63483076 0.46709824 107.64246368 C-2.76402644 107.65233891 -5.99491413 107.65004892 -9.2260437 107.64456177 C-10.6530651 107.65330029 -10.6530651 107.65330029 -12.10891521 107.66221535 C-12.96981262 107.65823326 -13.83071003 107.65425116 -14.71769524 107.65014839 C-15.46422541 107.65090783 -16.21075557 107.65166727 -16.97990787 107.65244973 C-18.80566406 107.40405273 -18.80566406 107.40405273 -20.80566406 105.40405273 C-21.00514963 102.9183873 -21.08556149 100.54654524 -21.07128906 98.06030273 C-21.07320251 97.33540649 -21.07511597 96.61051025 -21.0770874 95.86364746 C-21.07844893 94.33040012 -21.0747547 92.79714124 -21.06640625 91.26391602 C-21.05570584 88.91323014 -21.06630215 86.56330851 -21.07910156 84.21264648 C-21.07777996 82.72436354 -21.07521755 81.23608108 -21.07128906 79.74780273 C-21.07533752 79.0425647 -21.07938599 78.33732666 -21.08355713 77.61071777 C-21.03558892 72.63397759 -21.03558892 72.63397759 -18.80566406 70.40405273 C-16.05987339 70.21068445 -13.41532429 70.1436292 -10.66867065 70.1635437 C-9.81758291 70.16183485 -8.96649517 70.160126 -8.08961689 70.15836537 C-5.22128159 70.15505596 -2.35317724 70.16609793 0.51513672 70.17700195 C2.56466669 70.17756575 4.61419707 70.17725012 6.66372681 70.17611694 C12.24197797 70.17554121 17.82014378 70.18733106 23.39837503 70.20126486 C29.22268146 70.21373563 35.04698966 70.21493982 40.87130737 70.21731567 C51.90687513 70.22354121 62.94240344 70.23996652 73.97795379 70.26001465 C86.53881977 70.2823403 99.0996876 70.29335868 111.66056848 70.30340552 C137.50517953 70.32433184 163.34975553 70.35952863 189.19433594 70.40405273 C188.58844121 68.98663431 187.9765761 67.57176733 187.36230469 66.15795898 C187.02223389 65.36977783 186.68216309 64.58159668 186.33178711 63.76953125 C180.6951385 52.04738306 170.07359038 44.05719024 158.19433594 39.40405273 C148.14552127 36.70606541 138.49174566 35.97113186 128.09594727 36.03173828 C126.65509276 36.02930174 125.21423996 36.02557414 123.77339172 36.02067566 C119.90986816 36.01138334 116.04660312 36.02059091 112.18309999 36.03400779 C108.11284561 36.04544652 104.04260168 36.04120546 99.97233582 36.03926086 C93.14468231 36.03838207 86.31712888 36.04937338 79.48950195 36.06787109 C71.62491114 36.0890578 63.76046645 36.09254064 55.89585286 36.08630913 C48.28778987 36.08059241 40.67977769 36.08628662 33.07172203 36.09748268 C29.8523431 36.10209559 26.63299558 36.10301704 23.41361427 36.10089684 C19.61722996 36.09899737 15.82099198 36.10724354 12.02464104 36.12295723 C9.98744502 36.12914281 7.95022671 36.12571882 5.9130249 36.12188721 C-12.29265041 36.22589683 -26.84531414 39.87563778 -40.18457031 52.68920898 C-47.50931658 60.30356631 -52.01310059 68.97459251 -53.80566406 79.40405273 C-53.93972656 80.12592773 -54.07378906 80.84780273 -54.21191406 81.59155273 C-56.44488821 97.01937414 -51.74629774 110.48240937 -43.00488281 122.97827148 C-41.37298239 124.94780648 -39.69348041 126.68094519 -37.80566406 128.40405273 C-37.26039062 128.92999023 -36.71511719 129.45592773 -36.15332031 129.99780273 C-27.24558645 137.63857226 -13.68020012 141.52296268 -2.16864014 141.53535461 C-1.18792066 141.53852819 -1.18792066 141.53852819 -0.18738866 141.54176587 C1.99618499 141.54774103 4.17970044 141.54676746 6.36328125 141.54589844 C7.93247576 141.54893185 9.5016694 141.55245381 11.07086182 141.556427 C14.44894762 141.56430671 17.82702292 141.56945762 21.20511627 141.57271767 C26.56180519 141.57864659 31.9184283 141.59520803 37.27508545 141.61405945 C39.11273571 141.62039695 40.95038601 141.62672257 42.78803635 141.63303661 C44.16861544 141.63778533 44.16861544 141.63778533 45.57708502 141.64262998 C58.04226352 141.68459903 70.50741185 141.71763365 82.97265625 141.72998047 C91.38680042 141.73840015 99.80078176 141.76103815 108.21484447 141.79933614 C112.6592991 141.81897361 117.10351104 141.83154293 121.54801178 141.82650185 C125.74083723 141.82180447 129.93320505 141.83593356 134.12593842 141.86351395 C135.65071612 141.87034248 137.17554201 141.87064423 138.70031738 141.86331367 C160.10332207 141.77094627 180.5291694 147.58542086 197.19433594 161.40405273 C198.04511719 162.09241211 198.89589844 162.78077148 199.77246094 163.48999023 C215.67056717 176.99850382 226.73347874 197.5489094 229.19433594 218.40405273 C229.93994614 232.21096844 230.04740477 245.31353813 225.19433594 258.40405273 C224.84371094 259.41983398 224.49308594 260.43561523 224.13183594 261.48217773 C215.50270271 284.3733506 197.04401273 302.88297731 175.19433594 313.40405273 C162.15412909 319.06457053 150.14220208 320.70497869 136.09643555 320.69458008 C134.47576592 320.70057304 132.85509913 320.70738034 131.23443604 320.7149353 C126.85178763 320.73252911 122.46921744 320.73728801 118.08653712 320.73856688 C115.34070392 320.73999334 112.59489029 320.74427239 109.84906197 320.74956131 C100.24742508 320.76804308 90.64584354 320.77623467 81.04418945 320.7746582 C72.13114637 320.77345886 63.21834623 320.79452525 54.30536455 320.82614553 C46.62430571 320.85241227 38.94332568 320.86302109 31.26222235 320.86174738 C26.68761073 320.86124059 22.113215 320.86676516 17.53864861 320.88810349 C13.22845158 320.90766086 8.91867241 320.90749265 4.60845947 320.89307022 C3.03969769 320.89100217 1.47090854 320.89556111 -0.09780693 320.90779114 C-25.39104713 321.09197392 -47.98944238 311.94194219 -66.24316406 294.40405273 C-70.68301547 289.75347188 -74.34220783 284.8087548 -77.80566406 279.40405273 C-78.57330078 278.30577148 -78.57330078 278.30577148 -79.35644531 277.18530273 C-88.04081814 264.08020265 -90.99278316 248.79520138 -90.9909668 233.37426758 C-90.99316462 231.278524 -91.01138264 229.18329791 -91.03027344 227.08764648 C-91.03320575 225.75301286 -91.03519163 224.41837675 -91.03613281 223.08374023 C-91.0402417 221.87443848 -91.04435059 220.66513672 -91.04858398 219.41918945 C-90.80566406 216.40405273 -90.80566406 216.40405273 -88.80566406 213.40405273 C-86.98105854 213.03030658 -86.98105854 213.03030658 -84.72048855 213.03211594 C-83.86020784 213.02552609 -82.99992713 213.01893625 -82.11357731 213.01214671 C-81.16291183 213.02020312 -80.21224635 213.02825952 -79.23277283 213.03656006 C-77.72443708 213.0316568 -77.72443708 213.0316568 -76.1856299 213.02665448 C-72.79441987 213.01933407 -69.40363525 213.0335689 -66.01245117 213.04760742 C-63.59016343 213.04681712 -61.16787582 213.04472161 -58.74559021 213.04141235 C-52.83656218 213.03679853 -46.92765142 213.04611065 -41.01865118 213.06170031 C-34.14373368 213.07920686 -27.26884155 213.08065887 -20.39390523 213.0813159 C-8.13163469 213.08300518 4.13057674 213.09883548 16.39282227 213.12280273 C28.30396007 213.14606698 40.21506037 213.160228 52.1262207 213.16381836 C52.85993077 213.16404113 53.59364083 213.16426389 54.34958453 213.16449341 C55.82755784 213.164936 57.30553114 213.16537802 58.78350445 213.16581948 C59.87699564 213.16614883 59.87699564 213.16614883 60.99257755 213.16648483 C61.71967749 213.16670082 62.44677743 213.16691681 63.1959107 213.16713934 C74.53023352 213.17083657 85.86455026 213.1821961 97.19886642 213.19461523 C101.31344898 213.19905649 105.42803097 213.20249227 109.542615 213.20523736 C116.67611047 213.21007513 123.80957946 213.22016322 130.94305992 213.23606491 C133.3179358 213.24060289 135.69281563 213.24343009 138.06769562 213.2444725 C141.29463626 213.24620737 144.52150278 213.25406142 147.74842834 213.26361084 C148.70132454 213.26274436 149.65422074 213.26187788 150.63599259 213.26098514 C157.08012883 213.28984563 157.08012883 213.28984563 158.19433594 214.40405273 C158.19433594 225.95405273 158.19433594 237.50405273 158.19433594 249.40405273 C88.89433594 249.40405273 19.59433594 249.40405273 -51.80566406 249.40405273 C-43.62984804 265.75568477 -35.20117229 275.09808803 -18.09472656 281.67749023 C-13.42713457 283.15901261 -9.10869577 283.53318011 -4.21765137 283.55122375 C-3.56918322 283.55490044 -2.92071507 283.55857713 -2.25259638 283.56236523 C-0.08733474 283.57334687 2.07787882 283.57723653 4.24316406 283.58105469 C5.799145 283.5873237 7.35512446 283.59397089 8.91110229 283.60096741 C14.01591966 283.62196486 19.12073717 283.6323684 24.22558594 283.64233398 C25.98760493 283.64638369 27.74962377 283.65050068 29.51164246 283.65468407 C37.79459802 283.6737293 46.07754474 283.68795957 54.36051798 283.69629604 C63.89730827 283.70605464 73.43386562 283.73234091 82.9705739 283.77279693 C90.35680596 283.80304627 97.7429716 283.81777339 105.12926435 283.82107705 C109.53338949 283.82341822 113.9372656 283.83225572 118.34132385 283.85753822 C122.49139355 283.88097775 126.64105306 283.88498912 130.79117203 283.87477684 C132.30475868 283.87428514 133.81836662 283.88049616 135.33189011 283.89433289 C151.91435611 284.03730626 165.94218462 279.79150566 178.31542969 268.44311523 C189.69937571 256.08881207 192.93771405 241.72437125 192.32617188 225.39770508 C191.45673062 212.24982127 184.84172167 200.20459394 175.19433594 191.40405273 C169.26805873 186.95718195 163.26078469 183.60507776 156.19433594 181.40405273 C155.10233383 181.05548218 154.01033173 180.70691162 152.88523865 180.34777832 C146.47761391 178.78063152 139.88189126 179.1115736 133.32739258 179.11694336 C131.82671744 179.11091087 130.32604568 179.10398454 128.82537842 179.09623718 C125.60448789 179.08139918 122.38365882 179.07261158 119.16273689 179.06852722 C114.05361465 179.06177587 108.94462243 179.03997365 103.83555603 179.01599121 C92.9760133 178.96711701 82.11644282 178.93478906 71.25683594 178.90405273 C59.56070949 178.87087953 47.86463424 178.83464368 36.16858572 178.77992201 C31.10705585 178.75679464 26.04561582 178.74288806 20.98403847 178.73642731 C17.81033731 178.73041534 14.63670728 178.71625651 11.46304321 178.70008278 C10.01082234 178.69429219 8.55858377 178.69171634 7.10635185 178.69292259 C-5.9129775 178.70064167 -19.96379795 178.58320045 -32.18066406 173.65405273 C-33.16123779 173.25935791 -33.16123779 173.25935791 -34.16162109 172.85668945 C-44.1971815 168.71772951 -52.5272624 163.41214793 -60.80566406 156.40405273 C-61.40894531 155.94643555 -62.01222656 155.48881836 -62.63378906 155.01733398 C-77.42972455 143.50554306 -88.38220138 122.83285229 -90.80566406 104.40405273 C-92.09014472 88.22359652 -92.4901021 71.48608495 -85.80566406 56.40405273 C-85.36359619 55.37538086 -85.36359619 55.37538086 -84.91259766 54.32592773 C-81.00663052 45.42121638 -76.44035122 37.58199825 -69.80566406 30.40405273 C-68.92136719 29.42823242 -68.03707031 28.45241211 -67.12597656 27.44702148 C-56.38739436 15.95215001 -43.83137274 8.13204374 -28.80566406 3.40405273 C-28.00673862 3.15063582 -27.20781319 2.89721891 -26.38467789 2.6361227 C-17.55459747 0.1317607 -9.08413526 -0.02847947 0 0 Z " fill="#FEFEFE" transform="translate(90.8056640625,-0.404052734375)"/>
<path d="M0 0 C35.31 0 70.62 0 107 0 C107.33 23.1 107.66 46.2 108 70 C115.239375 62.78125 122.47875 55.5625 129.9375 48.125 C132.22550537 45.84609863 134.51351074 43.56719727 136.87084961 41.21923828 C138.67321247 39.4197948 140.47539006 37.62016572 142.27734375 35.8203125 C142.74797745 35.35229218 143.21861115 34.88427185 143.70350647 34.40206909 C145.08712954 33.02574673 146.46734121 31.64599746 147.84741211 30.26611328 C148.62684677 29.48889923 149.40628143 28.71168518 150.20933533 27.91091919 C152.05963402 26.11844622 152.05963402 26.11844622 153 24 C153.66 24 154.32 24 155 24 C155 23.34 155 22.68 155 22 C155.66 22 156.32 22 157 22 C157 21.34 157 20.68 157 20 C157.66 20 158.32 20 159 20 C159.27902664 19.41911118 159.55805328 18.83822235 159.84553528 18.23973083 C163.77641048 10.61359707 169.34725693 4.03435273 177 0 C187.4462865 -2.70499065 198.61634896 -1.92233017 209.31552505 -1.62230301 C213.53243829 -1.52130716 217.74959326 -1.512809 221.9675293 -1.49389648 C229.93021882 -1.44444312 237.88933392 -1.31354885 245.8504591 -1.15230465 C254.92390991 -0.97257743 263.9975445 -0.88527634 273.0723362 -0.80517769 C291.71690679 -0.63856921 310.35816469 -0.35771005 329 0 C328.24145767 4.7003727 326.9187248 6.56753245 323.49951172 9.9387207 C323.03268478 10.40452545 322.56585785 10.8703302 322.08488464 11.35025024 C320.54229535 12.88496959 318.98613435 14.40512842 317.4296875 15.92578125 C316.3483478 16.99710791 315.26796866 18.06940489 314.18850708 19.1426239 C311.34250472 21.96769812 308.4851624 24.78101051 305.62481689 27.59155273 C301.0656314 32.07551779 296.52470124 36.57798302 291.98212051 41.07875633 C290.4039675 42.6394091 288.82155823 44.1956317 287.23825073 45.75105286 C282.57177145 50.34821458 278.05567148 54.99319347 273.7984314 59.9730072 C269.94987622 64.31067259 265.76549285 68.33364469 261.6484375 72.4140625 C260.66121314 73.39686864 259.67429059 74.37997802 258.68765259 75.3633728 C255.58627031 78.45343825 252.48093929 81.5395159 249.375 84.625 C245.76413253 88.21214573 242.15496861 91.80097285 238.55000687 95.39405441 C237.11803909 96.81960477 235.68300069 98.24206858 234.24789429 99.66445923 C228.91391802 104.96046582 228.91391802 104.96046582 223.99462891 110.63427734 C223.33640137 111.41496582 222.67817383 112.1956543 222 113 C221.34 113 220.68 113 220 113 C219.01 114.98 219.01 114.98 218 117 C217.34 117 216.68 117 216 117 C215.75445877 117.57085831 215.50891754 118.14171661 215.25593567 118.72987366 C213.78408288 121.39027409 212.06181734 123.17810178 209.9050293 125.32202148 C209.06042648 126.16647324 208.21582367 127.01092499 207.34562683 127.88096619 C206.43106216 128.78520828 205.5164975 129.68945038 204.57421875 130.62109375 C203.62454713 131.56703014 202.67531987 132.51341284 201.72651672 133.46022034 C199.22905574 135.95005745 196.7256551 138.43383779 194.22094727 140.91638184 C191.6860455 143.43090269 189.15671305 145.95101118 186.62695312 148.47070312 C182.91537847 152.16638525 179.20081582 155.8590223 175.4831543 159.54858398 C174.30090523 160.72247932 174.30090523 160.72247932 173.09477234 161.92008972 C171.84673154 163.15927588 170.59833704 164.39810622 169.34919739 165.63618469 C166.21719427 168.74987513 163.37728585 172.03522917 160.55078125 175.42578125 C160.03902344 175.94527344 159.52726563 176.46476563 159 177 C158.34 177 157.68 177 157 177 C156.7525 177.61875 156.505 178.2375 156.25 178.875 C154.76259631 181.40358627 153.56321991 181.71839004 151 183 C150.75008301 183.55526367 150.50016602 184.11052734 150.24267578 184.68261719 C148.44956666 188.02646626 145.79940835 190.44548802 143.1171875 193.078125 C142.54292023 193.64956238 141.96865295 194.22099976 141.37698364 194.80975342 C139.5476419 196.62792945 137.71145807 198.43901492 135.875 200.25 C134.63105226 201.48391329 133.3875573 202.71828322 132.14453125 203.953125 C129.10157633 206.97406743 126.05246746 209.98867092 123 213 C124.55935633 216.74061812 126.87054678 219.11465636 129.7265625 221.95703125 C130.42632706 222.65610847 130.42632706 222.65610847 131.14022827 223.36930847 C132.1280674 224.35413345 133.11832895 225.33653381 134.11083984 226.31665039 C135.60433047 227.79208043 137.0898575 229.2751574 138.57421875 230.75976562 C142.57648844 234.74165496 146.578863 238.65185452 150.90258789 242.28613281 C154.46734798 245.3803452 157.3468346 248.71914651 160.24511719 252.43374634 C177.39854083 274.61042796 177.39854083 274.61042796 202.23188782 285.17350769 C215.83980356 286.15567662 229.52668774 284.98826126 243 283 C240.04909391 280.02439537 237.09493253 277.05207322 234.13769531 274.08276367 C233.13190797 273.07194415 232.12701952 272.06022938 231.12304688 271.04760742 C229.68073517 269.59318144 228.23523328 268.14199385 226.7890625 266.69140625 C225.91975098 265.81685791 225.05043945 264.94230957 224.15478516 264.04125977 C222.17190998 261.96493227 222.17190998 261.96493227 220 261 C220 260.34 220 259.68 220 259 C219.34 259 218.68 259 218 259 C218 258.34 218 257.68 218 257 C217.34 257 216.68 257 216 257 C216 256.34 216 255.68 216 255 C215.360625 254.731875 214.72125 254.46375 214.0625 254.1875 C212 253 212 253 211 250 C209.6854835 249.29695761 208.34912216 248.63410695 207 248 C205.30413818 246.54464722 205.30413818 246.54464722 203.60839844 244.83544922 C202.64785553 243.87467972 202.64785553 243.87467972 201.66790771 242.89450073 C200.98859192 242.20486237 200.30927612 241.515224 199.609375 240.8046875 C198.90476135 240.09724396 198.20014771 239.38980042 197.47418213 238.66091919 C195.2280461 236.40360138 192.98896991 234.13942367 190.75 231.875 C189.22702283 230.34199047 187.70359061 228.80943285 186.1796875 227.27734375 C182.44783185 223.52345427 178.72174649 219.76391086 175 216 C177.17076559 212.03423798 179.67558207 209.09018256 182.88671875 205.91796875 C183.34859085 205.45892654 183.81046295 204.99988434 184.28633118 204.52693176 C185.74872138 203.07565086 187.21794126 201.63151796 188.6875 200.1875 C189.68600823 199.19903354 190.68405989 198.21010563 191.68164062 197.22070312 C194.11664308 194.80922726 196.5561959 192.40255043 199 190 C204.22758327 192.64247959 207.91569249 196.68019672 211.96875 200.80859375 C213.1056427 201.9532888 213.1056427 201.9532888 214.26550293 203.12110901 C216.68181386 205.55519242 219.09132643 207.99586057 221.5 210.4375 C223.90951993 212.87470173 226.32050513 215.31040671 228.73449707 217.74317932 C230.23429255 219.25516089 231.73140688 220.76980804 233.22546387 222.28746033 C236.06556773 225.15467351 238.82842259 227.86428897 241.99804688 230.37133789 C242.65869141 230.90879639 243.31933594 231.44625488 244 232 C244 232.66 244 233.32 244 234 C244.66 234 245.32 234 246 234 C246 234.66 246 235.32 246 236 C246.83209488 236.34362831 246.83209488 236.34362831 247.68099976 236.69419861 C250.65535515 238.36902267 252.69914815 240.46784066 255.10400391 242.89282227 C255.84620934 243.63699905 255.84620934 243.63699905 256.60340881 244.39620972 C258.23244608 246.03172088 259.85439109 247.67408755 261.4765625 249.31640625 C262.60897658 250.45509249 263.74190852 251.59326394 264.87533569 252.73094177 C267.85441139 255.72330708 270.82786508 258.7211917 273.79974365 261.72070312 C278.56247904 266.52659856 283.33198565 271.32575124 288.10471725 276.12171745 C289.77229314 277.79953391 291.43642504 279.48071181 293.10025024 281.1622467 C294.11831366 282.18713603 295.13648601 283.21191716 296.15478516 284.23657227 C297.04428864 285.13432877 297.93379211 286.03208527 298.85025024 286.95704651 C300.82805488 289.03568088 300.82805488 289.03568088 303 290 C303 290.66 303 291.32 303 292 C303.66 292 304.32 292 305 292 C305 292.66 305 293.32 305 294 C305.66 294 306.32 294 307 294 C307 294.66 307 295.32 307 296 C307.99 296.33 308.98 296.66 310 297 C310 297.66 310 298.32 310 299 C310.58426758 299.26119629 311.16853516 299.52239258 311.77050781 299.79150391 C315.70532904 301.9243735 318.60349865 305.23444667 321.75 308.375 C322.44738281 309.04789062 323.14476562 309.72078125 323.86328125 310.4140625 C324.52199219 311.06890625 325.18070313 311.72375 325.859375 312.3984375 C326.76381348 313.29054932 326.76381348 313.29054932 327.68652344 314.20068359 C329 316 329 316 329 320 C278.84 320 228.68 320 177 320 C177 319.34 177 318.68 177 318 C176.01 317.67 175.02 317.34 174 317 C172.27014142 315.37409255 170.63901655 313.71468061 169 312 C167.60526739 310.59486088 166.20767655 309.19255621 164.80810547 307.79223633 C164.01733612 306.99823929 163.22656677 306.20424225 162.41183472 305.38618469 C158.84226352 301.80327839 155.27008986 298.22297173 151.69775391 294.64282227 C149.81144002 292.7514508 147.92583176 290.85941095 146.04150391 288.96606445 C143.3190727 286.23154093 140.59345777 283.50022662 137.8671875 280.76953125 C137.02340546 279.92058792 136.17962341 279.07164459 135.31027222 278.19697571 C134.52580719 277.41243515 133.74134216 276.62789459 132.93310547 275.81958008 C132.24425262 275.12850662 131.55539978 274.43743317 130.84567261 273.72541809 C128.91139438 271.82320504 128.91139438 271.82320504 126 270 C126 269.34 126 268.68 126 268 C125.34 268 124.68 268 124 268 C122.28774662 266.3802025 120.62776952 264.70467649 119 263 C118.24225784 262.24003723 117.48451569 261.48007446 116.70381165 260.69708252 C115.92152695 259.91178162 115.13924225 259.12648071 114.33325195 258.31738281 C109.92119317 253.88939656 105.50698685 249.4635626 101.09115314 245.03934097 C98.42688094 242.36982371 95.76356446 239.69936639 93.10229492 237.02685547 C90.518127 234.43184739 87.9315457 231.83926788 85.34325218 229.24837494 C84.35876584 228.26203999 83.37516053 227.27482485 82.39245033 226.28672028 C81.02347379 224.91051607 79.65110099 223.53769279 78.27856445 222.16503906 C77.49866653 221.38292053 76.71876862 220.600802 75.91523743 219.79498291 C74.11937536 217.94080038 74.11937536 217.94080038 72 217 C72.12464837 212.88660367 73.6760644 211.07291148 76.5 208.3125 C77.1290625 207.73113281 77.758125 207.14976562 78.40625 206.55078125 C80.10135232 205.0715957 80.10135232 205.0715957 81 203 C81.66 203 82.32 203 83 203 C83 202.34 83 201.68 83 201 C84.61886087 199.28686106 86.2959181 197.62839198 88 196 C88.85574615 195.14647446 89.71149231 194.29294891 90.59317017 193.41355896 C91.5145578 192.49518753 92.43594543 191.5768161 93.38525391 190.63061523 C98.58774009 185.4444237 103.78771774 180.25572474 108.98624611 175.06556606 C112.12427911 171.93276726 115.26324807 168.80091785 118.40429688 165.67114258 C121.45319781 162.63310967 124.49964648 159.59263748 127.54441452 156.55046272 C128.70214139 155.39457997 129.86074639 154.23957604 131.02025223 153.08547783 C132.64035414 151.47264051 134.2572938 149.85669496 135.87353516 148.23999023 C136.7933316 147.3224144 137.71312805 146.40483856 138.66079712 145.4594574 C140.99767124 143.10950579 140.99767124 143.10950579 142.69540405 140.67250061 C143.12592072 140.12057541 143.55643738 139.56865021 144 139 C144.66 139 145.32 139 146 139 C146 138.34 146 137.68 146 137 C146.66 137 147.32 137 148 137 C148.36782089 136.14371254 148.36782089 136.14371254 148.74307251 135.27012634 C150.21852479 132.60532419 151.94573645 130.82147843 154.11083984 128.67797852 C154.95867035 127.83352676 155.80650085 126.98907501 156.68002319 126.11903381 C157.59772491 125.21479172 158.51542664 124.31054962 159.4609375 123.37890625 C160.41307683 122.43304352 161.36469873 121.48665966 162.31582642 120.53977966 C164.81877879 118.05011187 167.32723489 115.56607079 169.83734131 113.08361816 C173.84862399 109.11548468 177.85325122 105.14066483 181.85454178 101.16245842 C183.24797967 99.7791785 184.64500004 98.39951035 186.04208374 97.01991272 C186.89621857 96.17230881 187.75035339 95.3247049 188.63037109 94.45141602 C189.37934662 93.71069351 190.12832214 92.96997101 190.8999939 92.20680237 C193.09292322 89.97765561 193.09292322 89.97765561 195.14810181 87.2217865 C195.75922821 86.48859695 196.37035461 85.75540741 197 85 C197.66 85 198.32 85 199 85 C199.99 83.02 199.99 83.02 201 81 C201.66 81 202.32 81 203 81 C203 80.34 203 79.68 203 79 C203.66 79 204.32 79 205 79 C205.25147797 78.42320496 205.50295593 77.84640991 205.76205444 77.25213623 C207.16126744 74.70661371 208.74724077 73.01241884 210.80712891 70.96582031 C211.58778717 70.18531311 212.36844543 69.40480591 213.17276001 68.60064697 C214.01551483 67.76821472 214.85826965 66.93578247 215.7265625 66.078125 C216.58937836 65.21813904 217.45219421 64.35815308 218.34115601 63.47210693 C221.09778029 60.7266769 223.86127799 57.9882831 226.625 55.25 C228.49524857 53.38978217 230.36504589 51.52911054 232.234375 49.66796875 C236.8176936 45.10670055 241.40667478 40.55118989 246 36 C238.70984754 35.64190149 231.42199352 35.39862692 224.125 35.23095703 C221.64920351 35.16100289 219.17397598 35.06579459 216.70019531 34.94384766 C201.67706068 33.72247599 201.67706068 33.72247599 188.20019531 39.10839844 C184.13393653 42.84875417 180.48481034 47.03037932 178 52 C177.34 52 176.68 52 176 52 C176 52.66 176 53.32 176 54 C175.34 54 174.68 54 174 54 C173.7595546 54.56608978 173.51910919 55.13217957 173.27137756 55.71542358 C171.73738625 58.47189851 169.9001049 60.33218966 167.65795898 62.55322266 C166.7604039 63.44739899 165.86284882 64.34157532 164.93809509 65.2628479 C163.95745936 66.22995126 162.97679148 67.19702201 161.99609375 68.1640625 C160.99192861 69.16195436 159.98827879 70.16036503 158.98512268 71.15927124 C156.34786017 73.78325168 153.70508329 76.40160094 151.06066895 79.01837158 C146.8232776 83.21258277 142.59264289 87.413583 138.36519051 91.6178093 C136.88680667 93.08595836 135.40506421 94.55065478 133.92295837 96.01504517 C133.02855545 96.90291718 132.13415253 97.79078918 131.21264648 98.70556641 C130.42147934 99.48848053 129.63031219 100.27139465 128.81517029 101.07803345 C126.94115685 102.87685361 126.94115685 102.87685361 126 105 C125.34 105 124.68 105 124 105 C124 105.66 124 106.32 124 107 C123.34 107 122.68 107 122 107 C122 107.66 122 108.32 122 109 C121.34 109 120.68 109 120 109 C120 109.66 120 110.32 120 111 C119.34 111 118.68 111 118 111 C117.74309891 111.58221817 117.48619781 112.16443634 117.22151184 112.76429749 C115.88808124 115.2048421 114.42691498 116.81386174 112.45581055 118.77124023 C111.36909309 119.85773109 111.36909309 119.85773109 110.26042175 120.96617126 C109.47709976 121.73917068 108.69377777 122.5121701 107.88671875 123.30859375 C107.08015335 124.11232925 106.27358795 124.91606476 105.44258118 125.74415588 C102.86221124 128.3133367 100.27498812 130.87549016 97.6875 133.4375 C95.95592158 135.15904403 94.22479645 136.88104412 92.49414062 138.60351562 C89.30968923 141.77163936 86.12267028 144.93712852 82.93237305 148.09936523 C79.94712966 151.05855283 76.96892547 154.024445 74 157 C73.01 156.67 72.02 156.34 71 156 C71 116.07 71 76.14 71 35 C59.45 35 47.9 35 36 35 C36 117.17 36 199.34 36 284 C59.1 284 82.2 284 106 284 C124.61111111 297.81944444 124.61111111 297.81944444 129.58886719 306.59155273 C130.77228208 309.11349155 130.77228208 309.11349155 133 310 C133 310.66 133 311.32 133 312 C133.66 312 134.32 312 135 312 C135 312.66 135 313.32 135 314 C135.66 314 136.32 314 137 314 C137 314.66 137 315.32 137 316 C137.66 316 138.32 316 139 316 C139 317.32 139 318.64 139 320 C93.13 320 47.26 320 0 320 C0 214.4 0 108.8 0 0 Z " fill="#FEFEFE" transform="translate(751,0)"/>
<path d="M0 0 C16.15939697 -0.30406755 32.31786247 -0.53310591 48.47943115 -0.67355824 C55.9841693 -0.74051581 63.48712743 -0.83174197 70.99072266 -0.98071289 C77.5332182 -1.1105406 84.07442478 -1.19421232 90.61817265 -1.22315043 C94.08196214 -1.2400627 97.5420655 -1.27960039 101.00466919 -1.37449074 C122.05818431 -1.92949891 122.05818431 -1.92949891 126.9123764 1.25430298 C130.20099762 4.66662885 131.54486283 8.52028701 133 13 C134.01947468 14.76059725 135.07929524 16.49942395 136.203125 18.1953125 C136.70215332 19.00315186 137.20118164 19.81099121 137.71533203 20.64331055 C142.96795966 29.13725898 148.2645634 37.60083819 153.61352539 46.03442383 C157.49338802 52.16508157 161.29145725 58.34273015 165.04052734 64.55419922 C167.19554277 68.11056779 169.39004339 71.61947936 171.72265625 75.0625 C172.14909424 75.69760498 172.57553223 76.33270996 173.01489258 76.98706055 C174.16961521 78.69369449 175.3419867 80.38834978 176.515625 82.08203125 C178.27900731 85.54846963 178.08238744 86.36193852 177 90 C175.58886719 92.69140625 175.58886719 92.69140625 173.796875 95.5625 C172.82041016 97.12871094 172.82041016 97.12871094 171.82421875 98.7265625 C171.13972656 99.80679688 170.45523438 100.88703125 169.75 102 C169.08097656 103.08023438 168.41195312 104.16046875 167.72265625 105.2734375 C164.49435682 110.41080987 161.42175209 114.80114536 157 119 C154.83170557 116.95360354 153.1860318 114.92139953 151.609375 112.39453125 C151.15522217 111.67112549 150.70106934 110.94771973 150.2331543 110.20239258 C149.74371338 109.41372803 149.25427246 108.62506348 148.75 107.8125 C148.22768799 106.97807373 147.70537598 106.14364746 147.16723633 105.28393555 C146.03435427 103.47295382 144.90332351 101.66081298 143.77392578 99.84765625 C141.98716627 96.97939822 140.19543317 94.11430452 138.40234375 91.25 C135.89344273 87.24107173 133.38702714 83.23060733 130.8828125 79.21875 C128.25499371 75.00891777 125.62470128 70.80064794 122.9921875 66.59375 C122.00472534 65.01533325 122.00472534 65.01533325 120.99731445 63.4050293 C119.75659501 61.42191343 118.51557392 59.43898624 117.27416992 57.45629883 C116.70029541 56.53872803 116.1264209 55.62115723 115.53515625 54.67578125 C114.64787842 53.31706909 114.64787842 53.31706909 113.74267578 51.9309082 C112 49 112 49 110.51904297 45.44995117 C108.69911889 41.50192921 107.23078576 38.93126471 104 36 C97.31433289 33.75762481 89.94339965 34.45730929 83 34.6875 C81.06124092 34.70450666 79.12242079 34.7156328 77.18359375 34.72070312 C72.45230914 34.74582723 67.72894224 34.85110943 63 35 C73.81963586 52.74983545 84.7072948 70.44910861 95.90063477 87.96630859 C100.04437891 94.46409763 104.09770069 101.01124593 108.1003418 107.59667969 C114.99172323 118.93464597 122.08712136 130.14412043 129.1784668 141.35766602 C138.54464046 156.18012327 147.85460072 171.04011364 157 186 C161.13089575 179.95478671 165.0391694 173.78145041 168.90600586 167.56591797 C171.72517919 163.03549343 174.56595232 158.51960142 177.42333984 154.01318359 C181.84188509 147.04410756 186.21317165 140.05092827 190.5 133 C197.34249928 121.75121577 204.39670262 110.63850449 211.484375 99.54296875 C217.89989137 89.49541542 224.234194 79.4096987 230.42578125 69.22265625 C235.49177946 60.8935536 240.68841625 52.64476525 245.90625 44.41015625 C246.91672207 42.81513926 247.92713811 41.22008678 248.9375 39.625 C249.43983154 38.83222656 249.94216309 38.03945313 250.4597168 37.22265625 C254.37842008 31.02218433 258.21842507 24.7763345 261.99584961 18.48876953 C262.81528802 17.13418437 263.66454049 15.79715315 264.5436554 14.48051453 C266.11404815 11.99531447 266.11404815 11.99531447 267.03131104 8.98246765 C268.71812006 5.09763956 270.36065897 2.20611263 274 0 C282.39325143 -2.19442403 291.4477673 -1.43438987 300.05228806 -1.21672726 C303.53401285 -1.1413848 307.01587684 -1.13463786 310.49829102 -1.12042236 C317.08300849 -1.08321645 323.66531714 -0.98488128 330.24897671 -0.86422849 C337.74807329 -0.72980165 345.24728888 -0.66404838 352.74729156 -0.60388327 C368.16625316 -0.4786626 383.58281524 -0.26778601 399 0 C398.33424269 3.65115822 397.50979218 6.19980541 395.515625 9.34375 C394.99911377 10.16721924 394.48260254 10.99068848 393.95043945 11.83911133 C393.38929443 12.71720459 392.82814941 13.59529785 392.25 14.5 C391.06097835 16.38918474 389.87218267 18.27851172 388.68359375 20.16796875 C388.07241699 21.13395996 387.46124023 22.09995117 386.83154297 23.09521484 C383.9606492 27.64838654 381.13864143 32.2314738 378.3125 36.8125 C370.67627394 49.15107538 362.99277983 61.45504332 355.1875 73.6875 C350.04879033 81.74346904 344.9787726 89.83833622 339.96118164 97.97021484 C335.87118913 104.59820753 331.75521342 111.20949817 327.625 117.8125 C326.99859619 118.81394043 326.37219238 119.81538086 325.72680664 120.84716797 C324.4537288 122.88207097 323.18053506 124.91690147 321.90722656 126.95166016 C319.39356303 130.96927446 316.88185117 134.98810671 314.37036133 139.00708008 C313.12297834 141.00312082 311.8754196 142.99905174 310.62768555 144.99487305 C307.48728479 150.01828675 304.349026 155.0430163 301.21484375 160.0703125 C295.10413408 169.86732277 288.96601287 179.64440141 282.75 189.375 C278.05404597 196.7279184 273.4409029 204.12408088 268.91015625 211.57983398 C265.88835871 216.55246187 262.83533989 221.50403441 259.75 226.4375 C259.37391602 227.03933105 258.99783203 227.64116211 258.61035156 228.26123047 C256.30648104 231.93883125 253.98102768 235.60226841 251.6484375 239.26171875 C248.02718134 244.94746123 244.44527901 250.65714191 240.875 256.375 C240.22974365 257.40794189 239.5844873 258.44088379 238.91967773 259.50512695 C231.8410809 270.84457624 224.7645859 282.18720278 217.80078125 293.59765625 C216.58652726 295.58528904 215.35313449 297.56147298 214.09326172 299.52050781 C212.51580843 302.03810318 211.22169591 304.60310146 209.96020508 307.29174805 C204.2050464 318.72726066 204.2050464 318.72726066 198.73583984 320.89910889 C192.44646642 322.11850572 186.15485289 321.55364396 179.8125 321.0625 C177.88770537 320.97709402 175.96254496 320.89955008 174.03710938 320.83007812 C169.34894289 320.64392424 164.67854358 320.35166252 160 320 C160.55192751 316.58925761 161.3205353 314.06271741 163.15234375 311.13671875 C163.59376709 310.42330322 164.03519043 309.7098877 164.48999023 308.97485352 C164.96766846 308.22002686 165.44534668 307.4652002 165.9375 306.6875 C166.43258057 305.89206787 166.92766113 305.09663574 167.43774414 304.27709961 C168.95196551 301.84724637 170.47583452 299.42362367 172 297 C172.84469141 295.64381506 173.68849952 294.2870794 174.53125 292.9296875 C178.8817103 285.93108265 183.28334024 278.96488694 187.6875 272 C197.27563271 256.83468152 206.81160312 241.63731134 216.14428711 226.31323242 C222.0181013 216.67446267 227.98232858 207.09495178 234.125 197.625 C238.50719912 190.86066687 242.72058786 183.99314629 246.9375 177.125 C247.46380005 176.26790436 247.46380005 176.26790436 248.00073242 175.39349365 C249.04867536 173.68681441 250.09660339 171.98012601 251.14453125 170.2734375 C257.3813534 160.11766372 263.70517838 150.02179411 270.11767578 139.97607422 C275.52755582 131.50054711 280.87713427 122.99687298 286.09960938 114.40454102 C292.99120106 103.06614726 300.08686788 91.85628039 307.1784668 80.64233398 C311.3874391 73.98141627 315.57285927 67.30591982 319.75 60.625 C320.35158936 59.66335937 320.95317871 58.70171875 321.57299805 57.7109375 C326.08167764 50.49409243 330.54753409 43.25161577 335 36 C329.46883104 35.65179082 323.94411606 35.39904123 318.40454102 35.23095703 C316.52483 35.16087761 314.64587368 35.06556308 312.76879883 34.94384766 C302.57315299 33.92870161 302.57315299 33.92870161 293.32287598 37.27026367 C290.41436107 40.53664503 288.56250729 44.26863995 286.80331421 48.24481201 C285.71804831 50.61604564 284.33319154 52.72762655 282.8828125 54.890625 C281.96259284 56.34314932 281.0433219 57.79627512 280.125 59.25 C279.6194458 60.05026611 279.1138916 60.85053223 278.59301758 61.67504883 C274.79225569 67.70778783 271.06280061 73.7814501 267.3581543 79.87353516 C261.55964644 89.3931043 255.62577816 98.82836348 249.70703125 108.2734375 C248.23919352 110.61794719 246.77447997 112.96433524 245.3125 115.3125 C240.60952569 122.86386158 235.85006437 130.37694754 231.0625 137.875 C225.79918398 146.12211477 220.64860041 154.42947836 215.56640625 162.7890625 C209.79102714 172.28384648 203.85118309 181.67453112 197.87133789 191.04150391 C192.01037869 200.22253947 186.24346582 209.45023218 180.5859375 218.7578125 C173.57328035 230.28727516 166.32920378 241.66982991 159 253 C156.44914622 252.63364673 155.28445446 252.32878502 153.57128906 250.34863281 C153.14041992 249.64061523 152.70955078 248.93259766 152.265625 248.203125 C151.77819824 247.41591064 151.29077148 246.62869629 150.78857422 245.81762695 C150.28084473 244.97031006 149.77311523 244.12299316 149.25 243.25 C148.71777832 242.3839917 148.18555664 241.5179834 147.63720703 240.62573242 C146.08106538 238.08999843 144.53992564 235.54560196 143 233 C142.26471884 231.80234129 141.52797463 230.60557819 140.7890625 229.41015625 C139.51445782 227.34737766 138.24361173 225.28227182 136.9765625 223.21484375 C131.12555046 213.69827673 125.16268008 204.25141118 119.1875 194.8125 C114.91770167 188.06643888 110.69412695 181.29334823 106.5 174.5 C102.40889889 167.87400391 98.29121307 161.26654003 94.125 154.6875 C84.88408874 140.09479338 75.71398543 125.45686847 66.6875 110.73046875 C64.41677493 107.05630943 62.08833104 103.42017619 59.76171875 99.78125 C57.91787457 96.87034743 56.11197516 93.93852439 54.3125 91 C51.02418292 85.63751368 47.67917315 80.31359268 44.3125 75 C39.5172792 67.42815989 34.78054692 59.82204871 30.07202148 52.19604492 C26.50089032 46.41539883 22.90884245 40.64832599 19.30200195 34.88989258 C16.79294277 30.88296353 14.29032191 26.87203232 11.78808594 22.86083984 C10.61197445 20.9791257 9.43301542 19.09918781 8.25097656 17.22119141 C6.6601509 14.69352564 5.07901197 12.16005639 3.5 9.625 C3.02481934 8.87581299 2.54963867 8.12662598 2.06005859 7.35473633 C0.97793842 5.60677551 -0.0209911 3.80773135 -1 2 C-0.67 1.34 -0.34 0.68 0 0 Z " fill="#FEFEFE" transform="translate(329,0)"/>
<path d="M0 0 C0.97573471 -0.00817749 1.95146942 -0.01635498 2.95677185 -0.02478027 C6.20514303 -0.04970775 9.45347002 -0.0661766 12.7019043 -0.08056641 C14.36604402 -0.08855192 14.36604402 -0.08855192 16.06380272 -0.09669876 C21.94552292 -0.12347304 27.82722167 -0.14282682 33.70898438 -0.15722656 C39.76704666 -0.17380765 45.82455785 -0.21851835 51.88241291 -0.26959801 C56.55210439 -0.30338455 61.22166758 -0.31481703 65.89146996 -0.32045364 C68.12283687 -0.32714375 70.35419603 -0.34230689 72.5854435 -0.36634445 C87.56708227 -0.51842209 99.6702273 -0.4355944 111.1003418 10.49755859 C119.29625741 19.11021567 122.1515156 27.22782509 122.07495117 39.13085938 C121.78846015 49.85698454 117.16555377 57.61190261 109.71362305 65.19287109 C109.05362305 65.19287109 108.39362305 65.19287109 107.71362305 65.19287109 C108.14932617 65.63115234 108.5850293 66.06943359 109.03393555 66.52099609 C118.16303909 76.24289857 122.29520258 86.77691739 122.07299805 99.95068359 C121.69158957 107.11663783 118.64177436 113.30064413 114.71362305 119.19287109 C114.05362305 119.19287109 113.39362305 119.19287109 112.71362305 119.19287109 C112.46999023 119.78970703 112.22635742 120.38654297 111.9753418 121.00146484 C110.478942 123.60047501 109.03503208 124.63602361 106.52612305 126.25537109 C105.42204102 126.98433594 105.42204102 126.98433594 104.2956543 127.72802734 C97.29219509 131.7012455 92.27265947 132.62355707 84.28027344 132.53344727 C83.25512634 132.53388535 82.22997925 132.53432343 81.17376709 132.53477478 C77.80274061 132.53269338 74.43221835 132.50939246 71.0612793 132.48583984 C68.71716076 132.4802416 66.37303871 132.47597258 64.02891541 132.47297668 C57.87216427 132.46154601 51.71562689 132.43209386 45.55895996 132.39886475 C39.27135103 132.36812569 32.98370741 132.35446314 26.69604492 132.33935547 C14.36847727 132.30722267 2.04106796 132.25604762 -10.28637695 132.19287109 C-10.30950199 122.82251171 -10.32729286 113.45216208 -10.33818913 104.08178043 C-10.3434176 99.7311865 -10.3505146 95.38061203 -10.36181641 91.0300293 C-10.37264655 86.83496852 -10.37865405 82.6399265 -10.3812542 78.44485283 C-10.38310822 76.84080141 -10.38672839 75.23675107 -10.39210701 73.6327076 C-10.39931914 71.39370594 -10.40036782 69.1547828 -10.39990234 66.91577148 C-10.40212296 65.63891983 -10.40434357 64.36206818 -10.40663147 63.04652405 C-10.28637695 60.19287109 -10.28637695 60.19287109 -9.28637695 59.19287109 C-6.26829632 59.0917341 -3.27357183 59.05318201 -0.25512695 59.06005859 C0.65112427 59.05910187 1.55737549 59.05814514 2.49108887 59.05715942 C4.41113352 59.05647756 6.33118046 59.05833227 8.2512207 59.0625 C11.20098008 59.06784817 14.15058719 59.06255522 17.1003418 59.05615234 C18.96101922 59.05681312 20.82169654 59.05809428 22.68237305 59.06005859 C23.57089966 59.05803436 24.45942627 59.05601013 25.37487793 59.05392456 C31.59867316 59.07792121 31.59867316 59.07792121 32.71362305 60.19287109 C32.71362305 69.76287109 32.71362305 79.33287109 32.71362305 89.19287109 C52.18362305 89.19287109 71.65362305 89.19287109 91.71362305 89.19287109 C92.95249852 91.67062205 92.88103974 93.42940817 92.90112305 96.19287109 C92.91530273 97.07974609 92.92948242 97.96662109 92.9440918 98.88037109 C92.71362305 101.19287109 92.71362305 101.19287109 90.71362305 103.19287109 C87.82910156 103.44683838 87.82910156 103.44683838 84.0925293 103.45166016 C83.41269989 103.45516479 82.73287048 103.45866943 82.03244019 103.46228027 C79.78023128 103.47109891 77.52833527 103.46524815 75.27612305 103.45849609 C73.71435485 103.45984271 72.15258707 103.46178321 70.59082031 103.46429443 C67.31563328 103.46724587 64.04055524 103.46294749 60.76538086 103.45361328 C56.56178614 103.44221867 52.35844679 103.44877805 48.15486145 103.46075821 C44.92930162 103.46797632 41.7038026 103.46568912 38.47824097 103.46050262 C36.92804942 103.45916599 35.37785239 103.46081433 33.82766724 103.46546173 C31.66320112 103.47052625 29.49915178 103.46281819 27.3347168 103.45166016 C25.48511353 103.44927338 25.48511353 103.44927338 23.59814453 103.44683838 C20.71362305 103.19287109 20.71362305 103.19287109 18.71362305 101.19287109 C18.39477539 98.48730469 18.39477539 98.48730469 18.29956055 95.09130859 C18.26088867 93.87958984 18.2222168 92.66787109 18.18237305 91.41943359 C18.15143555 90.14841797 18.12049805 88.87740234 18.08862305 87.56787109 C18.04995117 86.28912109 18.0112793 85.01037109 17.97143555 83.69287109 C17.87691548 80.52644898 17.79417105 77.35967943 17.71362305 74.19287109 C13.42362305 74.19287109 9.13362305 74.19287109 4.71362305 74.19287109 C4.38362305 88.71287109 4.05362305 103.23287109 3.71362305 118.19287109 C18.93259307 118.16017068 18.93259307 118.16017068 34.15112305 118.08154297 C40.36373384 118.03926707 46.576051 118.0022204 52.78881836 117.99731445 C57.8011725 117.99301696 62.81286785 117.96443405 67.82501602 117.91943932 C69.73139729 117.90651062 71.63785758 117.90214012 73.54427719 117.9067173 C87.99431334 118.27811299 87.99431334 118.27811299 100.71362305 112.19287109 C105.80240586 106.00720883 107.31793878 100.18843314 106.71362305 92.19287109 C105.29045932 86.26302223 102.68553652 81.77040188 97.90112305 77.94287109 C91.64225378 74.50662914 85.72846068 73.88808085 78.75268555 73.81396484 C77.92151215 73.79697037 77.09033875 73.77997589 76.23397827 73.76246643 C73.60226853 73.7097047 70.97057272 73.66916837 68.33862305 73.63037109 C65.68532389 73.58644548 63.03214578 73.53984756 60.3789978 73.48756409 C58.73311544 73.45558542 57.08712486 73.428702 55.44107056 73.40733337 C49.82545455 73.3047026 49.82545455 73.3047026 48.71362305 72.19287109 C48.61488489 70.19487538 48.58390506 68.19329951 48.58862305 66.19287109 C48.58604492 65.09974609 48.5834668 64.00662109 48.58081055 62.88037109 C48.71362305 60.19287109 48.71362305 60.19287109 49.71362305 59.19287109 C52.64823887 59.08187495 55.56324986 59.03119649 58.4987793 59.01708984 C60.32756661 58.99387277 62.15634266 58.96975469 63.98510742 58.94482422 C66.87279576 58.90983825 69.76007568 58.88044613 72.64794922 58.86694336 C75.43206823 58.85137088 78.21498246 58.81108099 80.9987793 58.76708984 C81.85117691 58.76899826 82.70357452 58.77090668 83.58180237 58.77287292 C90.32178973 58.63683115 95.55095768 56.86709393 100.73706055 52.48193359 C105.65175741 46.43089063 107.46411483 40.97922339 106.71362305 33.19287109 C105.28513114 27.24082148 102.68450196 22.73529807 97.83862305 18.94287109 C92.00569943 15.67643387 86.93570686 14.90356065 80.3215332 14.96582031 C79.50135712 14.96552826 78.68118103 14.96523621 77.83615112 14.9649353 C75.1415527 14.9663219 72.4472353 14.98185138 69.75268555 14.99755859 C67.87796174 15.00129111 66.00323598 15.00413695 64.12850952 15.00613403 C59.20642666 15.01375171 54.28446278 15.03338415 49.36242676 15.05554199 C44.33497731 15.07604066 39.30750854 15.08514434 34.2800293 15.09521484 C24.42450842 15.11663182 14.56907565 15.1507452 4.71362305 15.19287109 C4.71362305 19.81287109 4.71362305 24.43287109 4.71362305 29.19287109 C5.80134506 29.20317856 6.88906708 29.21348602 8.00975037 29.22410583 C18.23721735 29.32166469 28.46462111 29.42438168 38.69198513 29.53221035 C43.95055942 29.58748484 49.20913922 29.64091194 54.46777344 29.69018555 C59.53820368 29.73776251 64.60856402 29.79010263 69.67891121 29.84581184 C71.61787244 29.86626572 73.55685286 29.88497366 75.4958477 29.90194511 C78.20189259 29.92592226 80.90780404 29.95598555 83.61376953 29.98754883 C84.42368851 29.99330429 85.23360748 29.99905975 86.06806946 30.00498962 C91.59957089 30.07881893 91.59957089 30.07881893 92.71362305 31.19287109 C92.83850062 33.0021439 92.88933151 34.81683216 92.90112305 36.63037109 C92.91530273 37.61908203 92.92948242 38.60779297 92.9440918 39.62646484 C92.71362305 42.19287109 92.71362305 42.19287109 90.71362305 44.19287109 C88.90858364 44.44176006 88.90858364 44.44176006 86.68345642 44.44010925 C85.41937706 44.44640099 85.41937706 44.44640099 84.12976074 44.45281982 C82.74029236 44.44439056 82.74029236 44.44439056 81.32275391 44.43579102 C80.34871109 44.43768936 79.37466827 44.43958771 78.37110901 44.44154358 C75.14014731 44.44525897 71.90940863 44.43453699 68.6784668 44.42333984 C66.44169644 44.42214845 64.20492557 44.42169479 61.96815491 44.42195129 C57.27642697 44.42038515 52.58477519 44.41208494 47.89306641 44.39868164 C41.86444772 44.38168184 35.83591276 44.3778675 29.80727291 44.37862682 C25.18778171 44.37835555 20.568309 44.37288135 15.94882393 44.36562538 C13.72515567 44.36243249 11.5014853 44.36046987 9.27781487 44.35973167 C6.17687245 44.35757521 3.07602074 44.34884638 -0.02490234 44.33813477 C-0.95323883 44.33858795 -1.88157532 44.33904114 -2.83804321 44.33950806 C-9.17190313 44.30734492 -9.17190313 44.30734492 -10.28637695 43.19287109 C-10.38754616 40.10205644 -10.42606253 37.03404554 -10.41918945 33.94287109 C-10.42014618 33.01442383 -10.42110291 32.08597656 -10.42208862 31.12939453 C-10.4227705 29.16227145 -10.42091567 27.19514613 -10.41674805 25.22802734 C-10.4113999 22.20584083 -10.41669278 19.18380295 -10.4230957 16.16162109 C-10.42243492 14.25537076 -10.42115376 12.34912053 -10.41918945 10.44287109 C-10.42121368 9.5324707 -10.42323792 8.62207031 -10.42532349 7.68408203 C-10.39170921 -1.24765092 -8.10356324 0.03706619 0 0 Z " fill="#FEFEFE" transform="translate(311.286376953125,383.80712890625)"/>
<path d="M0 0 C0.72867814 -0.0024299 1.45735628 -0.00485979 2.20811558 -0.00736332 C3.04479771 -0.01726795 3.88147984 -0.02717258 4.74351597 -0.03737736 C5.66346851 -0.03287571 6.58342106 -0.02837406 7.53125095 -0.023736 C8.49898441 -0.03059925 9.46671787 -0.0374625 10.46377659 -0.04453373 C13.67920511 -0.06290679 16.89415006 -0.05894611 20.10962009 -0.05327702 C22.34485629 -0.05783686 24.58009109 -0.06314185 26.81532383 -0.06916142 C31.51219447 -0.07811543 36.20889535 -0.07564697 40.90576267 -0.06572819 C46.90445259 -0.05429112 52.90254924 -0.07435754 58.90116119 -0.10364532 C63.52451868 -0.1220685 68.14773601 -0.12170172 72.77112103 -0.1160078 C74.98095177 -0.11585504 77.19079229 -0.12186208 79.40058804 -0.13429928 C94.7175772 -0.20829396 107.67643222 -0.01998954 119.20727634 11.38031673 C126.75038312 20.24420096 129.84827118 28.47016973 129.56274509 40.09516048 C128.37820889 51.04235771 122.70924426 60.49853516 114.20727634 67.38031673 C106.98541282 71.64977709 101.07903055 73.52690759 92.6967783 73.585639 C91.82827244 73.5955386 90.95976658 73.60543819 90.06494236 73.61563778 C87.19184191 73.64724618 84.31872493 73.67200765 81.44555759 73.69672298 C79.4544389 73.71729308 77.46332457 73.73828956 75.4722147 73.75969601 C70.22960027 73.81491094 64.98694646 73.86432281 59.74426365 73.9125433 C53.454992 73.97159078 47.16579236 74.03781561 40.87658024 74.10284328 C31.32018956 74.20084554 21.76375286 74.28970661 12.20727634 74.38031673 C11.87727634 88.90031673 11.54727634 103.42031673 11.20727634 118.38031673 C15.82727634 118.05031673 20.44727634 117.72031673 25.20727634 117.38031673 C25.26786228 115.4428558 25.32844822 113.50539486 25.39087009 111.50922298 C25.47525409 108.98707914 25.55990315 106.46494416 25.64477634 103.94281673 C25.68409275 102.6634222 25.72340916 101.38402767 25.76391697 100.06586361 C25.8058115 98.8509222 25.84770603 97.6359808 25.89087009 96.38422298 C25.92752781 95.25830746 25.96418552 94.13239193 26.00195408 92.97235775 C26.20727634 90.38031673 26.20727634 90.38031673 27.20727634 89.38031673 C28.8952962 89.2867851 30.58722842 89.26286883 32.27783298 89.26679134 C33.35887806 89.26686687 34.43992313 89.26694241 35.55372715 89.26702023 C37.31776134 89.27476215 37.31776134 89.27476215 39.11743259 89.28266048 C40.31460407 89.28407543 41.51177555 89.28549038 42.74522495 89.2869482 C46.586767 89.29256694 50.42825177 89.30512263 54.26977634 89.31781673 C56.86678071 89.32282932 59.46378599 89.32739264 62.06079197 89.33148861 C68.44297313 89.34254246 74.82512065 89.35929881 81.20727634 89.38031673 C81.42343601 89.90875179 81.63959568 90.43718685 81.86230564 90.98163509 C82.86742051 93.42941684 83.88104993 95.87358949 84.89477634 98.31781673 C85.23444431 99.14861752 85.57411228 99.9794183 85.92407322 100.83539486 C89.44121535 109.44157039 89.44121535 109.44157039 94.20727634 117.38031673 C97.27329872 118.66132503 97.27329872 118.66132503 100.51977634 118.44281673 C101.58840916 118.4544183 102.65704197 118.46601986 103.75805759 118.47797298 C104.56629978 118.44574642 105.37454197 118.41351986 106.20727634 118.38031673 C102.36124768 108.64249948 98.36749441 98.98843942 94.20727634 89.38031673 C99.48727634 89.38031673 104.76727634 89.38031673 110.20727634 89.38031673 C114.63117192 98.71965184 118.90328275 108.11619107 123.08227634 117.56781673 C123.57058933 118.66666195 124.05890232 119.76550716 124.56201267 120.89765072 C125.248801 122.45721493 125.248801 122.45721493 125.94946384 124.04828548 C126.36051365 124.97923031 126.77156345 125.91017513 127.19506931 126.86933041 C128.20727634 129.38031673 128.20727634 129.38031673 129.20727634 133.38031673 C106.93227634 132.88531673 106.93227634 132.88531673 84.20727634 132.38031673 C79.54060968 123.0469834 74.87394301 113.71365007 70.20727634 104.38031673 C60.63727634 104.38031673 51.06727634 104.38031673 41.20727634 104.38031673 C40.87727634 113.95031673 40.54727634 123.52031673 40.20727634 133.38031673 C18.92227634 132.88531673 18.92227634 132.88531673 -2.79272366 132.38031673 C-4.21310517 129.53955371 -3.92785175 127.13492277 -3.93798733 123.95868587 C-3.94302525 122.97061192 -3.94302525 122.97061192 -3.94816494 121.96257687 C-3.9576813 119.78018984 -3.95961837 117.59787948 -3.96069241 115.41547298 C-3.96390443 113.90094121 -3.96726846 112.38640974 -3.97077847 110.87187862 C-3.97677139 107.69507789 -3.97861819 104.51830437 -3.97802639 101.34149837 C-3.97792474 97.26805497 -3.99157912 93.19478577 -4.0087986 89.12138367 C-4.01990943 85.99273023 -4.02194588 82.86411903 -4.02141666 79.73544788 C-4.02259808 78.23352552 -4.02702892 76.73160212 -4.03474903 75.22969913 C-4.0445309 73.13012217 -4.04167829 71.03092502 -4.03564358 68.93134212 C-4.0370686 67.73602367 -4.03849361 66.54070522 -4.03996181 65.309165 C-3.79272366 62.38031673 -3.79272366 62.38031673 -1.79272366 59.38031673 C1.33425137 59.0802773 4.2654766 58.97431116 7.39526463 58.99555111 C8.34830982 58.99017834 9.30135502 58.98480556 10.28328037 58.97926998 C12.35836983 58.96946733 14.43350039 58.9665553 16.50861073 58.96962643 C19.79605068 58.97409181 23.08294861 58.96013792 26.37033176 58.94122982 C33.35763758 58.90436318 40.3448876 58.89073513 47.33227634 58.88031673 C55.4083496 58.86823533 63.48416092 58.84660685 71.56011677 58.8003149 C74.79287902 58.78676462 78.02530868 58.79091354 81.25808811 58.79572201 C83.25303662 58.7863762 85.24798149 58.77620607 87.24292088 58.76508236 C88.13673969 58.77123058 89.03055851 58.77737881 89.95146275 58.78371334 C96.30270956 58.72177463 102.17270521 57.90522051 107.23071384 53.69672298 C107.89973728 52.82853939 107.89973728 52.82853939 108.58227634 51.94281673 C109.04376072 51.3666058 109.50524509 50.79039486 109.98071384 50.19672298 C114.21521858 43.92587999 113.86321134 37.79487302 113.20727634 30.38031673 C111.78311698 24.87982098 108.89063987 21.57993409 104.28149509 18.38812923 C98.50095864 15.579507 93.1045798 15.09283478 86.79345798 15.15326595 C85.98288944 15.1529739 85.1723209 15.15268185 84.33718967 15.15238094 C81.68049186 15.15376489 79.0240809 15.16928169 76.36743259 15.18500423 C74.5165583 15.18873769 72.66568202 15.19158309 70.81480503 15.19357967 C65.96013966 15.20118992 61.10559531 15.22081587 56.25097752 15.24298763 C51.29046357 15.26350241 46.32992993 15.27259341 41.36938572 15.28266048 C31.64862963 15.30406433 21.92796308 15.33816861 12.20727634 15.38031673 C12.20727634 20.00031673 12.20727634 24.62031673 12.20727634 29.38031673 C40.91727634 29.71031673 69.62727634 30.04031673 99.20727634 30.38031673 C99.20727634 34.67031673 99.20727634 38.96031673 99.20727634 43.38031673 C95.74450401 45.1117029 91.73629392 44.53679413 87.92407322 44.54144955 C86.96139027 44.54641445 85.99870731 44.55137936 85.00685215 44.55649471 C81.81323637 44.57113464 78.61967021 44.57792044 75.42602634 44.58344173 C73.21407157 44.58919049 71.00211682 44.59494825 68.79016209 44.60071468 C64.14973817 44.61122907 59.5093316 44.61706927 54.86889744 44.62055111 C48.9098007 44.62604496 42.95093141 44.65009022 36.99190617 44.67852306 C32.422988 44.69710195 27.85412522 44.70235244 23.28517246 44.70388699 C21.08743639 44.70692345 18.88970151 44.71498511 16.6920023 44.72807217 C13.62464918 44.74503789 10.55785984 44.743276 7.49047947 44.73676205 C6.575089 44.74597683 5.65969852 44.75519161 4.71656895 44.76468563 C3.46727856 44.7563319 3.46727856 44.7563319 2.19274998 44.74780941 C1.46713116 44.74927597 0.74151234 44.75074253 -0.00609493 44.75225353 C-1.79272366 44.38031673 -1.79272366 44.38031673 -3.79272366 41.38031673 C-3.98891099 38.51376064 -4.07274088 35.74673166 -4.05834866 32.88031673 C-4.06121883 31.63218197 -4.06121883 31.63218197 -4.064147 30.35883236 C-4.0655074 28.60036574 -4.06182104 26.84188903 -4.05346584 25.08344173 C-4.04276414 22.39050411 -4.05336586 19.69823359 -4.06616116 17.00531673 C-4.06483954 15.29698193 -4.06227709 13.58864754 -4.05834866 11.88031673 C-4.06239712 11.07400814 -4.06644558 10.26769955 -4.07061672 9.43695736 C-3.9985067 0.84826181 -3.9985067 0.84826181 0 0 Z " fill="#FEFEFE" transform="translate(9.792723655700684,383.61968326568604)"/>
<path d="M0 0 C1.59460689 -0.00270197 3.18921216 -0.00659022 4.78381348 -0.01159668 C8.1088038 -0.01745867 11.43336122 -0.00903659 14.75830078 0.00976562 C18.99127932 0.03255366 23.22324295 0.01941264 27.45618439 -0.00452423 C30.74391133 -0.01907236 34.03140302 -0.01433533 37.31913757 -0.00401306 C38.87863794 -0.00137057 40.43816063 -0.00452686 41.99763489 -0.01393127 C54.81910435 -0.07430869 65.0702926 1.70396509 75.11328125 10.24609375 C81.54449879 16.83499438 85.38495179 24.95021953 86.03125 34.09375 C86.11761719 35.20878906 86.20398437 36.32382812 86.29296875 37.47265625 C86.33744883 40.15172548 86.04973307 41.9933419 85.34375 44.53125 C72.19225976 44.5543709 59.04077431 44.57216379 45.88926792 44.58306217 C39.78318631 44.58829156 33.67711856 44.5953902 27.57104492 44.60668945 C21.68369853 44.61751637 15.79636551 44.62352642 9.90900993 44.62612724 C7.65742723 44.62798185 5.40584531 44.63160313 3.15426826 44.63698006 C0.01241573 44.64418789 -3.12938083 44.64524105 -6.27124023 44.64477539 C-7.21206955 44.64837067 -8.15289886 44.65196594 -9.12223816 44.65567017 C-15.54219784 44.64530216 -15.54219784 44.64530216 -16.65625 43.53125 C-16.65625 39.24125 -16.65625 34.95125 -16.65625 30.53125 C12.05375 30.53125 40.76375 30.53125 70.34375 30.53125 C69.02375 28.22125 67.70375 25.91125 66.34375 23.53125 C66.34375 22.87125 66.34375 22.21125 66.34375 21.53125 C65.8075 21.263125 65.27125 20.995 64.71875 20.71875 C62.91867284 19.81871142 61.12870667 18.89841493 59.34375 17.96875 C54.73290466 15.75938661 51.08766821 15.39854478 45.97387695 15.35424805 C44.68185867 15.34141281 43.38984039 15.32857758 42.05867004 15.31535339 C40.64979438 15.30718358 39.24091433 15.29974031 37.83203125 15.29296875 C37.11878378 15.28889322 36.40553631 15.2848177 35.67067528 15.28061867 C31.89316476 15.25978792 28.11569022 15.24547501 24.33813477 15.23608398 C20.45572246 15.22504376 16.57388709 15.19066366 12.69167805 15.15091228 C9.68974312 15.12463992 6.6879433 15.11638268 3.68590355 15.11280251 C2.25589299 15.10796153 0.82588744 15.0964193 -0.60400963 15.07776451 C-10.40226156 14.95790929 -17.82780527 15.54253479 -25.53125 21.90625 C-29.48692948 26.79267759 -31.3359062 31.23115519 -31.65625 37.53125 C-30.85931231 44.65388061 -28.55913701 49.78114652 -23.28125 54.78125 C-18.25107679 58.1346988 -13.61318541 58.77940283 -7.64794922 58.77075195 C-6.97384506 58.77276611 -6.29974091 58.77478027 -5.60520935 58.77685547 C-4.15005782 58.78038365 -2.6948909 58.77965538 -1.23974228 58.77507973 C1.07455081 58.76944484 3.38835032 58.77871476 5.7026062 58.7922821 C12.27962425 58.8292221 18.85647462 58.84801453 25.43359375 58.83666992 C29.4673183 58.83076934 33.50034877 58.84931821 37.53393173 58.88255882 C39.05909152 58.8904375 40.58432851 58.88933971 42.10947037 58.87853432 C54.19430235 58.79663988 64.83420471 60.86921986 74.52734375 68.66015625 C83.16286005 77.55566659 86.19950092 87.4287522 86.34375 99.53125 C85.55340093 108.88371402 81.10463801 117.66740975 74.234375 124 C66.98725759 129.86956617 60.19353253 132.8343105 50.75292969 132.82177734 C50.01709152 132.82849457 49.28125336 132.83521179 48.52311707 132.84213257 C46.10388325 132.8610428 43.68492801 132.86503349 41.265625 132.8671875 C39.57179656 132.87362133 37.87796922 132.88035012 36.18414307 132.88735962 C32.63689602 132.89931572 29.08974623 132.90304227 25.54248047 132.90185547 C21.01901065 132.90165262 16.49617147 132.92892688 11.9728508 132.96339989 C8.47417392 132.98574902 4.97564674 132.98969053 1.47690582 132.98863602 C-0.18950315 132.990981 -1.85591696 132.99974173 -3.52225494 133.01530075 C-16.03901422 133.12121279 -25.73604077 131.72620545 -35.65625 123.53125 C-35.65625 122.87125 -35.65625 122.21125 -35.65625 121.53125 C-36.31625 121.53125 -36.97625 121.53125 -37.65625 121.53125 C-43.62904243 113.56198099 -46.8390524 105.66863955 -46.7265625 95.73828125 C-46.71133545 93.99188354 -46.71133545 93.99188354 -46.69580078 92.21020508 C-46.68274902 91.3261499 -46.66969727 90.44209473 -46.65625 89.53125 C-33.37437591 89.50812921 -20.09250657 89.49033626 -6.81061649 89.47943783 C-0.6440008 89.47420842 5.52260118 89.46710973 11.68920898 89.45581055 C17.63491006 89.44498371 23.58059789 89.4389736 29.52630806 89.43637276 C31.80021943 89.43451814 34.07413004 89.43089683 36.34803581 89.42551994 C39.5210212 89.41831222 42.69395117 89.41725894 45.86694336 89.41772461 C46.81712341 89.41412933 47.76730347 89.41053406 48.74627686 89.40682983 C55.22969784 89.41719784 55.22969784 89.41719784 56.34375 90.53125 C56.41619053 92.55089199 56.42752188 94.57292124 56.40625 96.59375 C56.39722656 97.69847656 56.38820313 98.80320312 56.37890625 99.94140625 C56.36730469 100.79605469 56.35570312 101.65070313 56.34375 102.53125 C53.1814295 104.11241025 49.78533293 103.66062122 46.31396484 103.64477539 C45.48461929 103.64492142 44.65527374 103.64506744 43.80079651 103.6452179 C41.05206715 103.64451971 38.30340506 103.63673171 35.5546875 103.62890625 C33.65182533 103.62704174 31.74896268 103.62561799 29.84609985 103.62461853 C24.83193644 103.62079599 19.81780189 103.61096793 14.8036499 103.59991455 C9.68941641 103.58969479 4.57517826 103.5851197 -0.5390625 103.58007812 C-10.57813769 103.56934545 -20.61719145 103.55227216 -30.65625 103.53125 C-29.87805513 104.81774992 -29.09445093 106.10097875 -28.30859375 107.3828125 C-27.87281006 108.09775879 -27.43702637 108.81270508 -26.98803711 109.54931641 C-23.8194674 114.26470576 -19.98041331 116.04109221 -14.65625 117.53125 C-11.31320491 117.83728876 -11.31320491 117.83728876 -7.75219727 117.8059082 C-6.75825455 117.8135746 -6.75825455 117.8135746 -5.74423218 117.82139587 C-3.57027972 117.83520994 -1.39664718 117.83434144 0.77734375 117.83203125 C2.29899715 117.83592254 3.82064948 117.8402581 5.34230042 117.84501648 C8.52551806 117.85246097 11.70862476 117.85220021 14.8918457 117.84692383 C18.95815902 117.84112991 23.02401675 117.85806659 27.09025478 117.8812685 C30.23109056 117.89604527 33.37181758 117.89687223 36.51268196 117.89375877 C38.01130132 117.89426995 39.50992709 117.89946931 41.0085125 117.90957069 C43.10940514 117.92199584 45.20942266 117.91510845 47.31030273 117.90356445 C48.50243881 117.90419388 49.69457489 117.9048233 50.9228363 117.9054718 C56.91768903 117.24968075 62.04836313 114.82663687 66.34375 110.53125 C70.86995997 104.4223457 71.31898478 97.92512187 70.34375 90.53125 C68.62282166 84.662691 65.46421123 80.91268666 60.34375 77.53125 C53.13626284 73.97259718 45.59488187 74.1163017 37.73411751 74.15112495 C35.45783395 74.16034282 33.18235552 74.14989197 30.90611267 74.13450623 C24.44108115 74.0946988 17.97612021 74.09319873 11.51098633 74.09545898 C7.53874361 74.09551039 3.5669386 74.07619498 -0.40518379 74.04612541 C-2.63093326 74.03540978 -4.85580778 74.047362 -7.08152771 74.05995178 C-19.44629806 74.02778719 -27.4935958 71.49252644 -36.4609375 62.890625 C-44.26699886 54.50119251 -47.3189154 45.20591302 -47 33.8046875 C-45.85344258 22.88633392 -40.31838129 14.11393958 -31.90625 7.21875 C-21.85162625 0.47053243 -11.70800677 -0.07060517 0 0 Z " fill="#FEFEFE" transform="translate(987.65625,383.46875)"/>
<path d="M0 0 C1.6662594 0.00119375 3.33251949 0.00164455 4.9987793 0.00138855 C8.4717232 0.00294488 11.94456278 0.01117457 15.41748047 0.0246582 C19.87762207 0.04175314 24.3376505 0.04546908 28.79782104 0.04471302 C32.22919807 0.04498411 35.66055018 0.05045378 39.09191895 0.05771446 C40.73783174 0.06090261 42.38374737 0.06286888 44.02966309 0.06360817 C46.31800221 0.0657642 48.60621834 0.07448913 50.89453125 0.08520508 C52.84903198 0.09092278 52.84903198 0.09092278 54.84301758 0.09675598 C57.75 0.23046875 57.75 0.23046875 58.75 1.23046875 C58.83874135 4.33298076 58.86518455 7.41314995 58.84765625 10.515625 C58.84553383 11.91185341 58.84553383 11.91185341 58.84336853 13.33628845 C58.83775172 16.32188066 58.8251964 19.30739904 58.8125 22.29296875 C58.80748716 24.31184788 58.80292388 26.33072818 58.79882812 28.34960938 C58.78777683 33.30992447 58.77050095 38.27018407 58.75 43.23046875 C56.15541894 44.52775928 54.14552402 44.43474995 51.25 44.48046875 C49.78046875 44.51914062 49.78046875 44.51914062 48.28125 44.55859375 C47.4459375 44.4503125 46.610625 44.34203125 45.75 44.23046875 C43.38991183 40.6903365 43.51536356 39.2192492 43.5546875 35.03125 C43.56113281 33.82275391 43.56757812 32.61425781 43.57421875 31.36914062 C43.59935547 29.47518555 43.59935547 29.47518555 43.625 27.54296875 C43.63402344 26.26873047 43.64304687 24.99449219 43.65234375 23.68164062 C43.67594359 20.53106248 43.70886806 17.38085892 43.75 14.23046875 C36.57688559 14.26888071 29.40426647 14.32874364 22.23155117 14.41437149 C18.89915115 14.45351425 15.56724187 14.48376331 12.23461914 14.50146484 C-18.18229872 14.59043867 -18.18229872 14.59043867 -44.0625 29.48046875 C-55.14891152 41.64848139 -59.32502172 55.35664133 -58.69921875 71.5625 C-57.99427357 81.22439574 -54.23260655 89.71267693 -48.484375 97.4609375 C-47.25 99.23046875 -47.25 99.23046875 -46.25 102.23046875 C-45.59 102.23046875 -44.93 102.23046875 -44.25 102.23046875 C-44.25 102.89046875 -44.25 103.55046875 -44.25 104.23046875 C-43.59 104.23046875 -42.93 104.23046875 -42.25 104.23046875 C-42.25 104.89046875 -42.25 105.55046875 -42.25 106.23046875 C-41.59 106.45734375 -40.93 106.68421875 -40.25 106.91796875 C-37.76267812 108.00617207 -35.95549656 109.08685353 -33.75 110.60546875 C-23.92919765 116.79484645 -13.2043717 117.82864697 -1.85546875 117.83984375 C-0.54210037 117.85638 0.77126801 117.87291626 2.12443542 117.88995361 C5.56842036 117.93310297 9.01215333 117.95350739 12.45635986 117.96868896 C15.98993519 117.98845249 19.52324563 118.0303986 23.05664062 118.0703125 C29.95435221 118.14504421 36.85198286 118.19362003 43.75 118.23046875 C43.75 113.28046875 43.75 108.33046875 43.75 103.23046875 C42.1007251 103.24094238 40.4514502 103.25141602 38.75219727 103.26220703 C32.60768827 103.29852668 26.46318869 103.32141281 20.31860352 103.34033203 C17.66390161 103.34922821 15.00941773 103.36398931 12.35473633 103.38134766 C8.52943201 103.40572635 4.70427434 103.41698187 0.87890625 103.42578125 C-0.29957382 103.43610382 -1.47805389 103.44642639 -2.69224548 103.45706177 C-11.275562 103.45821896 -19.145707 103.04103683 -26.5625 98.35546875 C-27.36300781 97.86304688 -28.16351562 97.370625 -28.98828125 96.86328125 C-31.34904788 95.15896268 -33.32086031 93.41123535 -35.25 91.23046875 C-35.25 90.57046875 -35.25 89.91046875 -35.25 89.23046875 C-35.91 89.23046875 -36.57 89.23046875 -37.25 89.23046875 C-38.23414433 87.31635318 -39.21213349 85.39907205 -40.1875 83.48046875 C-40.73277344 82.413125 -41.27804687 81.34578125 -41.83984375 80.24609375 C-45.8364246 71.699389 -45.35830361 61.31803789 -42.28125 52.5 C-37.73251496 42.4893369 -29.15204117 35.02806394 -19.05090332 31.08221436 C-14.49569328 29.69698977 -10.15623853 29.73522323 -5.4296875 29.83984375 C-4.44501495 29.84550354 -3.46034241 29.85116333 -2.4458313 29.85699463 C0.66163287 29.87916764 3.76789157 29.9293269 6.875 29.98046875 C8.99737904 30.00055844 11.11977637 30.01880485 13.2421875 30.03515625 C18.41191418 30.07896968 23.58075359 30.14786248 28.75 30.23046875 C29.98887548 32.7082197 29.91741669 34.46700582 29.9375 37.23046875 C29.95167969 38.11734375 29.96585938 39.00421875 29.98046875 39.91796875 C29.75 42.23046875 29.75 42.23046875 27.75 44.23046875 C24.83349728 44.44019267 22.00442336 44.53162301 19.0859375 44.5390625 C17.30598658 44.56424199 15.52603874 44.5896397 13.74609375 44.61523438 C10.94190408 44.64386853 8.13776846 44.66788276 5.33349609 44.68676758 C2.62567846 44.70857004 -0.0814774 44.74804133 -2.7890625 44.7890625 C-4.03014267 44.78923622 -4.03014267 44.78923622 -5.29629517 44.78941345 C-11.51386996 44.89389559 -17.33234402 45.8028438 -22.2734375 49.9140625 C-22.94246094 50.78224609 -22.94246094 50.78224609 -23.625 51.66796875 C-24.08648438 52.24417969 -24.54796875 52.82039063 -25.0234375 53.4140625 C-29.25794223 59.68490549 -28.90593499 65.81591246 -28.25 73.23046875 C-26.82584063 78.7309645 -23.93336352 82.03085139 -19.32421875 85.22265625 C-14.10395029 87.75905788 -8.97520868 88.48365224 -3.22900391 88.53344727 C-2.56634521 88.5418866 -1.90368652 88.55032593 -1.22094727 88.559021 C0.94385583 88.58457101 3.10852339 88.59688073 5.2734375 88.609375 C6.78562477 88.62556563 8.29780173 88.64274725 9.80996704 88.66087341 C13.77145637 88.70636096 17.73295969 88.74128076 21.69458008 88.77307129 C28.05627195 88.82515345 34.41781364 88.88995203 40.77931595 88.96128654 C43.0023893 88.98415845 45.22544317 89.00039621 47.44857788 89.01600647 C48.80084456 89.02940477 50.15310913 89.04301884 51.50537109 89.05688477 C52.69004974 89.06639664 53.87472839 89.07590851 55.0953064 89.08570862 C57.75 89.23046875 57.75 89.23046875 58.75 90.23046875 C58.851137 93.24854938 58.88968909 96.24327388 58.8828125 99.26171875 C58.88376923 100.16796997 58.88472595 101.07422119 58.88571167 102.00793457 C58.88639353 103.92797922 58.88453882 105.84802616 58.88037109 107.76806641 C58.87502292 110.71782579 58.88031588 113.66743289 58.88671875 116.6171875 C58.88605797 118.47786492 58.88477681 120.33854225 58.8828125 122.19921875 C58.88483673 123.08774536 58.88686096 123.97627197 58.88894653 124.89172363 C58.86494988 131.11551887 58.86494988 131.11551887 57.75 132.23046875 C55.3956912 132.35203512 53.07017259 132.40904804 50.71435547 132.42333984 C49.97752533 132.43151733 49.24069519 132.43969482 48.48153687 132.44812012 C46.026762 132.47305511 43.572046 132.48952552 41.1171875 132.50390625 C40.27628696 132.50922993 39.43538643 132.5145536 38.56900406 132.5200386 C34.10379192 132.54682641 29.63860805 132.56616869 25.17333984 132.58056641 C21.49925339 132.59381684 17.82573412 132.62149362 14.15185547 132.66259766 C9.70262866 132.71237498 5.25390995 132.7367445 0.80441666 132.74379349 C-0.8802227 132.75044253 -2.56485362 132.7654953 -4.24933243 132.7896843 C-24.79020185 133.06741454 -41.08329499 126.66868804 -56.15625 112.4296875 C-68.41146969 99.42244297 -74.91670467 81.57500536 -74.43359375 63.78515625 C-73.73742279 54.09801135 -71.31437701 46.02613293 -67.25 37.23046875 C-66.85748047 36.20373047 -66.85748047 36.20373047 -66.45703125 35.15625 C-60.60444405 20.98526475 -44.80514743 9.66509416 -31.1875 3.98046875 C-20.93118691 -0.12926655 -10.84026983 -0.05135773 0 0 Z " fill="#FEFEFE" transform="translate(869.25,383.76953125)"/>
<path d="M0 0 C2.27356052 -0.3719368 2.27356052 -0.3719368 5.16908264 -0.36749268 C6.26422684 -0.37306183 7.35937103 -0.37863098 8.48770142 -0.3843689 C10.29795303 -0.37054672 10.29795303 -0.37054672 12.14477539 -0.35644531 C14.04475029 -0.35951187 14.04475029 -0.35951187 15.98310852 -0.36264038 C19.46239917 -0.36778372 22.94139511 -0.35422133 26.42063832 -0.33711338 C30.05568184 -0.32210517 33.69072109 -0.32325209 37.32579041 -0.32244873 C43.42989145 -0.31875376 49.5338802 -0.303774 55.63793945 -0.28125 C63.4825764 -0.25236298 71.32712293 -0.24202609 79.17180729 -0.2375679 C85.9045621 -0.23359307 92.63729712 -0.22109091 99.37003779 -0.20722103 C101.54000157 -0.20311583 103.70996464 -0.20019338 105.8799305 -0.19742584 C109.9148627 -0.19163899 113.9497139 -0.1769704 117.98461914 -0.16113281 C119.19347778 -0.16001495 120.40233643 -0.15889709 121.64782715 -0.15774536 C123.28631371 -0.14918015 123.28631371 -0.14918015 124.957901 -0.14044189 C125.91304627 -0.13746723 126.86819155 -0.13449257 127.85228062 -0.13142776 C130 0 130 0 131 1 C131.08874135 4.10251201 131.11518455 7.1826812 131.09765625 10.28515625 C131.09553383 11.68138466 131.09553383 11.68138466 131.09336853 13.1058197 C131.08775172 16.09141191 131.0751964 19.07693029 131.0625 22.0625 C131.05748716 24.08137913 131.05292388 26.10025943 131.04882812 28.11914062 C131.03777683 33.07945572 131.02050095 38.03971532 131 43 C126.76620814 45.11689593 121.15160218 44.18493005 116.5 44.1875 C115.33339844 44.19974609 114.16679688 44.21199219 112.96484375 44.22460938 C111.29615234 44.22750977 111.29615234 44.22750977 109.59375 44.23046875 C108.56958984 44.23457764 107.54542969 44.23868652 106.49023438 44.24291992 C104 44 104 44 102 42 C101.76953125 39.43359375 101.76953125 39.43359375 101.8125 36.4375 C101.81894531 35.44621094 101.82539062 34.45492187 101.83203125 33.43359375 C102 31 102 31 103 30 C105.34987262 29.76472227 107.70556039 29.58613583 110.0625 29.4375 C113.4965625 29.2209375 113.4965625 29.2209375 117 29 C116.67 24.38 116.34 19.76 116 15 C82.34 15 48.68 15 14 15 C14 19.62 14 24.24 14 29 C15.26706787 29.02505615 16.53413574 29.0501123 17.83959961 29.07592773 C22.52297779 29.16981996 27.2062013 29.27008435 31.8894043 29.37231445 C33.91964104 29.41573241 35.94991592 29.45740226 37.98022461 29.49731445 C40.89188151 29.55485146 43.80334514 29.61859278 46.71484375 29.68359375 C47.6283812 29.70030624 48.54191864 29.71701874 49.48313904 29.73423767 C55.88612829 29.88612829 55.88612829 29.88612829 57 31 C57.12512144 33.67702436 57.18606569 36.32952273 57.20532227 39.00805664 C57.21522186 39.84700974 57.22512146 40.68596283 57.23532104 41.55033875 C57.26703185 44.3369154 57.29173114 47.12350913 57.31640625 49.91015625 C57.33696752 51.83687292 57.35796376 53.76358499 57.37937927 55.69029236 C57.43468542 60.771823 57.48405688 65.85339492 57.53222656 70.93499756 C57.58237938 76.1162078 57.63809783 81.2973578 57.69335938 86.47851562 C57.80104537 96.65229233 57.902467 106.82612125 58 117 C62.62 117 67.24 117 72 117 C72.33 88.29 72.66 59.58 73 30 C77.29 30 81.58 30 86 30 C87.72057168 33.44114336 87.13785488 37.40458017 87.12939453 41.19140625 C87.13202301 42.62080032 87.13202301 42.62080032 87.13470459 44.07907104 C87.13911869 47.24023236 87.13618665 50.40133808 87.1328125 53.5625 C87.13348567 55.75203461 87.1344558 57.94156916 87.13571167 60.13110352 C87.13718804 64.72445384 87.13503601 69.31778474 87.13037109 73.91113281 C87.12467385 79.80961147 87.12795317 85.70804462 87.13394356 91.60652161 C87.13755079 96.12911321 87.13640983 100.65169396 87.13381577 105.17428589 C87.13314695 107.34968064 87.13397335 109.52507636 87.13629532 111.70046997 C87.13882448 114.73653792 87.13497747 117.77253137 87.12939453 120.80859375 C87.13141876 121.71463348 87.13344299 122.62067322 87.13552856 123.5541687 C87.11426374 129.77147253 87.11426374 129.77147253 86 132 C80.03686834 132.02464574 74.07376605 132.042834 68.1105957 132.05493164 C66.08031702 132.05997278 64.05004198 132.06680557 62.01977539 132.07543945 C59.10822653 132.08751467 56.1967255 132.09323034 53.28515625 132.09765625 C52.3716188 132.10281754 51.45808136 132.10797882 50.51686096 132.11329651 C48.34424573 132.11349168 46.17172704 132.06211805 44 132 C42.20011601 130.20011601 42.88006996 127.75000124 42.87557983 125.35444641 C42.88097275 124.13956795 42.88097275 124.13956795 42.88647461 122.90014648 C42.88632858 122.05143982 42.88618256 121.20273315 42.8860321 120.32830811 C42.88673152 117.50921109 42.89452522 114.69017929 42.90234375 111.87109375 C42.90420783 109.92196183 42.90563178 107.97282945 42.90663147 106.0236969 C42.91045745 100.88293168 42.92028841 95.74219453 42.93133545 90.60144043 C42.94154785 85.35994852 42.94612872 80.1184521 42.95117188 74.87695312 C42.96191061 64.58462306 42.97898799 54.29231386 43 44 C41.74340576 44.01571045 40.48681152 44.0314209 39.19213867 44.04760742 C34.53497718 44.10186183 29.87784369 44.13633376 25.22045898 44.16479492 C23.20380966 44.17989179 21.18719321 44.20037115 19.1706543 44.22631836 C16.27384329 44.26266211 13.37746594 44.2797172 10.48046875 44.29296875 C9.57725388 44.30845261 8.674039 44.32393646 7.74345398 44.33988953 C6.4824865 44.34022942 6.4824865 44.34022942 5.19604492 44.34057617 C4.45658127 44.34723801 3.71711761 44.35389984 2.95524597 44.36076355 C0.39746061 43.88882511 -0.47039042 43.08034084 -2 41 C-2.28620281 38.09330547 -2.39646792 35.40547601 -2.36328125 32.5 C-2.36377975 31.66791016 -2.36427826 30.83582031 -2.36479187 29.97851562 C-2.36245236 28.22002778 -2.35273102 26.46153653 -2.33618164 24.703125 C-2.31258859 22.01011235 -2.31562149 19.31808973 -2.32226562 16.625 C-2.31668877 14.91666076 -2.30957885 13.20832569 -2.30078125 11.5 C-2.30169266 10.69369141 -2.30260406 9.88738281 -2.30354309 9.05664062 C-2.25447945 5.19168021 -2.19264189 3.28896283 0 0 Z " fill="#FEFEFE" transform="translate(591,384)"/>
<path d="M0 0 C-0.33 4.29 -0.66 8.58 -1 13 C-2.299375 13.4125 -3.59875 13.825 -4.9375 14.25 C-21.07927441 19.69784886 -34.19679652 28.48846482 -42 44 C-48.04765623 58.63673999 -47.59861024 74.95344455 -42.00390625 89.609375 C-36.25834178 102.41263978 -25.08642529 112.00486182 -12.1875 117.22265625 C2.25184769 122.35378159 17.09284858 121.03375051 31 115 C44.73643803 108.25167508 52.57566924 97.345727 58.03125 83.35546875 C62.43184475 69.76659515 60.75387019 55.00000505 54.6796875 42.22265625 C47.69339501 29.83439442 37.48695409 20.74540977 24 16 C21.61451687 15.41922061 19.23086765 14.89545578 16.8203125 14.4296875 C15 14 15 14 14 13 C13.92728259 10.64686445 13.91629132 8.29166332 13.9375 5.9375 C13.94652344 4.64714844 13.95554687 3.35679687 13.96484375 2.02734375 C13.97644531 1.02832031 13.98804688 0.02929688 14 -1 C32.16164078 0.21077605 46.67355898 9.09820884 59 22 C70.60207302 35.62233449 76.30174255 52.10289474 76 70 C74.2202759 89.52376685 65.948643 107.10896458 51 120 C37.91829494 130.25377815 25.77623955 134.54131553 9.12304688 134.39111328 C7.00325184 134.37502468 4.88536252 134.39103743 2.765625 134.41015625 C-12.44546531 134.43418799 -24.30723484 130.19498564 -36.08984375 120.55078125 C-38.12533482 118.84870563 -38.12533482 118.84870563 -41 117 C-41 116.34 -41 115.68 -41 115 C-41.66 115 -42.32 115 -43 115 C-55.97794172 100.36088174 -62.97262902 82.58151161 -62.37890625 63.0078125 C-61.05123505 45.96867183 -54.13904232 31.04690538 -42 19 C-41.154375 18.0925 -40.30875 17.185 -39.4375 16.25 C-29.45269496 7.03325689 -14.05600053 -2.81120011 0 0 Z " fill="#FEFEFE" transform="translate(213,383)"/>
<path d="M0 0 C0 4.29 0 8.58 0 13 C-3.78718832 14.51487533 -7.21668267 15.59750625 -11.125 16.625 C-22.88702575 20.22670506 -32.39106273 28.35335408 -38.71875 38.8515625 C-46.08083598 52.81787267 -48.36658456 67.02660582 -44.375 82.375 C-39.60994244 97.01883544 -30.25988734 108.34171155 -16.53515625 115.37109375 C-3.07571217 121.57284865 11.67108101 121.87143156 25.6796875 117.32421875 C40.12990423 111.56113231 49.12375031 102.84369633 56 89 C61.95651431 74.70872941 61.46313477 59.2150566 55.78125 44.9375 C49.69962916 31.69308128 40.35992385 23.59785733 27.4375 17.25 C23.00494972 15.63816353 18.53293393 14.30399469 14 13 C14 8.71 14 4.42 14 0 C25.03772506 -2.20754501 36.75328444 4.17304566 46 10 C62.68830061 22.18834507 71.88770251 38.58970414 75.6875 58.625 C76.95313807 72.2938912 74.98671792 84.60766844 69 97 C68.44505859 98.18722656 68.44505859 98.18722656 67.87890625 99.3984375 C64.61380806 105.83825054 60.02907831 110.87117137 55 116 C54.33355469 116.70253906 53.66710937 117.40507812 52.98046875 118.12890625 C41.0397605 129.79564032 25.7698795 134.37433319 9.45922852 134.37060547 C7.33461832 134.37495472 5.21213129 134.41127268 3.08789062 134.44921875 C-14.96552281 134.59836934 -29.24797519 127.63966892 -41.984375 115.13671875 C-56.09406625 100.7407822 -61.43448459 83.9354299 -61.29101562 64.23779297 C-60.96142989 45.97935378 -53.77413087 30.50251823 -40.859375 17.69921875 C-31.06978627 8.45795398 -14.12856211 -3.53214053 0 0 Z " fill="#FEFEFE" transform="translate(507,383)"/>
<path d="M0 0 C5.96313166 -0.02464574 11.92623395 -0.042834 17.8894043 -0.05493164 C19.91968298 -0.05997278 21.94995802 -0.06680557 23.98022461 -0.07543945 C26.89177347 -0.08751467 29.8032745 -0.09323034 32.71484375 -0.09765625 C33.6283812 -0.10281754 34.54191864 -0.10797882 35.48313904 -0.11329651 C37.65575427 -0.11349168 39.82827296 -0.06211805 42 0 C43.95151685 1.95151685 43.12690802 4.92508631 43.13552856 7.52290344 C43.13350433 8.46216171 43.1314801 9.40141998 43.12939453 10.36914062 C43.13114685 11.35279099 43.13289917 12.33644135 43.13470459 13.34989929 C43.13912505 16.61870053 43.13618443 19.88744816 43.1328125 23.15625 C43.13348548 25.41687022 43.13445546 27.67749038 43.13571167 29.93811035 C43.13718891 34.68286832 43.13503326 39.42760749 43.13037109 44.17236328 C43.1246738 50.26938624 43.12795266 56.36636519 43.13394356 62.46338654 C43.13754848 67.13348729 43.1364109 71.80357753 43.13381577 76.47367859 C43.1331463 78.72246811 43.13397558 80.97125857 43.13629532 83.220047 C43.13882071 86.35701038 43.13498285 89.49390141 43.12939453 92.63085938 C43.13141876 93.57011765 43.13344299 94.50937592 43.13552856 95.47709656 C43.11426225 101.88573775 43.11426225 101.88573775 42 103 C40.00200428 103.09873816 38.00042842 103.12971799 36 103.125 C34.906875 103.12757813 33.81375 103.13015625 32.6875 103.1328125 C30 103 30 103 29 102 C28.87485589 99.29246274 28.81392872 96.60917896 28.79467773 93.90014648 C28.78477814 93.05143982 28.77487854 92.20273315 28.76467896 91.32830811 C28.73296753 88.50926551 28.70826861 85.69020602 28.68359375 82.87109375 C28.66303254 80.92195689 28.6420363 78.97282456 28.62062073 77.0236969 C28.56531402 71.88298207 28.5159428 66.74222643 28.46777344 61.60144043 C28.41762103 56.35990753 28.36190237 51.1184342 28.30664062 45.87695312 C28.19895394 35.58468625 28.09753247 25.29236775 28 15 C25.85423363 14.97314062 23.70837355 14.95366912 21.5625 14.9375 C19.77005859 14.92009766 19.77005859 14.92009766 17.94140625 14.90234375 C15.11126659 14.66098208 15.11126659 14.66098208 14 16 C13.90465042 19.13559886 13.87449121 22.24913613 13.88647461 25.38500977 C13.88632858 26.37026642 13.88618256 27.35552307 13.8860321 28.37063599 C13.88673168 31.64424807 13.89452615 34.91780404 13.90234375 38.19140625 C13.90420777 40.45442168 13.90563175 42.71743751 13.90663147 44.98045349 C13.9104579 50.94978948 13.92028925 56.91910132 13.93133545 62.88842773 C13.94154688 68.97444329 13.94612851 75.06046273 13.95117188 81.14648438 C13.96191141 93.09766689 13.97898932 105.04883144 14 117 C15.21115479 117.03758423 15.21115479 117.03758423 16.44677734 117.07592773 C20.08968917 117.19165487 23.73232726 117.31448635 27.375 117.4375 C28.64601563 117.47681641 29.91703125 117.51613281 31.2265625 117.55664062 C32.43828125 117.59853516 33.65 117.64042969 34.8984375 117.68359375 C36.01911621 117.72025146 37.13979492 117.75690918 38.29443359 117.79467773 C41 118 41 118 43 119 C43.02686553 120.97909398 43.04633375 122.95828971 43.0625 124.9375 C43.07410156 126.03964844 43.08570313 127.14179688 43.09765625 128.27734375 C43 131 43 131 42 132 C38.89748799 132.08874135 35.8173188 132.11518455 32.71484375 132.09765625 C31.78402481 132.0962413 30.85320587 132.09482635 29.8941803 132.09336853 C26.90858809 132.08775172 23.92306971 132.0751964 20.9375 132.0625 C18.91862087 132.05748716 16.89974057 132.05292388 14.88085938 132.04882812 C9.92054428 132.03777683 4.96028468 132.02050095 0 132 C-1.26268814 129.47462372 -1.12584895 127.74100804 -1.12698364 124.91357422 C-1.12980347 123.83670349 -1.13262329 122.75983276 -1.13552856 121.65032959 C-1.13350433 120.4637677 -1.1314801 119.27720581 -1.12939453 118.0546875 C-1.13114685 116.809151 -1.13289917 115.5636145 -1.13470459 114.28033447 C-1.13835922 110.85891893 -1.13749193 107.43756363 -1.1343255 104.01615143 C-1.13179869 100.44029152 -1.13414034 96.86443423 -1.13571167 93.28857422 C-1.13753242 87.28287289 -1.13512952 81.27718384 -1.13037109 75.27148438 C-1.12492865 68.32210493 -1.12669138 61.37275482 -1.1321975 54.42337608 C-1.13673131 48.46326636 -1.13737786 42.50316547 -1.13475883 36.54305458 C-1.13319754 32.98050073 -1.13299827 29.41796068 -1.13629532 25.85540771 C-1.13971265 21.88536432 -1.1349799 17.91535395 -1.12939453 13.9453125 C-1.13141876 12.75875061 -1.13344299 11.57218872 -1.13552856 10.34967041 C-1.13270874 9.27279968 -1.12988892 8.19592896 -1.12698364 7.08642578 C-1.12660662 6.14695099 -1.12622959 5.2074762 -1.12584114 4.23953247 C-1 2 -1 2 0 0 Z " fill="#FEFEFE" transform="translate(738,384)"/>
<path d="M0 0 C9.51648618 6.63435037 16.4164661 15.70517021 18.609375 27.203125 C19.62080566 37.06846402 17.76881817 47.27141894 11.9140625 55.37890625 C5.24065846 63.17036751 -1.8445824 69.02559416 -12.13671875 70.6796875 C-14.08263182 68.73377443 -13.57269536 65.52476294 -13.69921875 62.9296875 C-13.69250884 56.34055864 -13.69250884 56.34055864 -11.421875 53.640625 C-8.67934452 51.94452116 -6.40006245 50.6796875 -3.13671875 50.6796875 C-3.13671875 50.0196875 -3.13671875 49.3596875 -3.13671875 48.6796875 C-2.47671875 48.6796875 -1.81671875 48.6796875 -1.13671875 48.6796875 C-0.84796875 47.9578125 -0.55921875 47.2359375 -0.26171875 46.4921875 C0.42736044 44.76948952 1.14496753 43.05745513 1.91015625 41.3671875 C3.81846268 35.98638905 3.90030551 29.62652568 2 24.2265625 C1.32190817 22.89503672 0.60472044 21.58208614 -0.1640625 20.30078125 C-1.13671875 18.6796875 -1.13671875 18.6796875 -2.13671875 15.6796875 C-3.93604454 14.61252046 -3.93604454 14.61252046 -6.13671875 13.6796875 C-6.96171875 13.1640625 -7.78671875 12.6484375 -8.63671875 12.1171875 C-14.2803316 8.87211011 -21.20321008 8.72110135 -27.4609375 10.24609375 C-30.25489194 11.23249911 -32.6230773 12.16353436 -34.734375 14.28515625 C-36.13671875 15.6796875 -36.13671875 15.6796875 -38.13671875 15.6796875 C-38.81233623 17.3427459 -39.47605156 19.01063355 -40.13671875 20.6796875 C-40.40097656 21.28425781 -40.66523438 21.88882812 -40.9375 22.51171875 C-43.5482524 28.78494845 -44.13181482 34.13627638 -42.07421875 40.6796875 C-38.98343823 48.07131827 -34.19519959 52.15044708 -27.13671875 55.6796875 C-27.13671875 60.2996875 -27.13671875 64.9196875 -27.13671875 69.6796875 C-31.24504429 71.04912935 -32.94947301 69.77225273 -36.734375 67.96875 C-46.96009335 62.48177918 -53.85391174 54.5262613 -57.4140625 43.4296875 C-60.06633176 33.3367277 -58.75749638 24.99337906 -54.76171875 15.3671875 C-52.70717046 11.96928072 -50.58172381 8.81430937 -48.13671875 5.6796875 C-47.47671875 5.6796875 -46.81671875 5.6796875 -46.13671875 5.6796875 C-46.13671875 5.0196875 -46.13671875 4.3596875 -46.13671875 3.6796875 C-42.99215331 1.36636989 -39.5628429 -0.4582885 -36.13671875 -2.3203125 C-35.51539063 -2.66964844 -34.8940625 -3.01898438 -34.25390625 -3.37890625 C-23.47468153 -8.4301573 -9.72111302 -6.00683035 0 0 Z " fill="#FEFEFE" transform="translate(534.13671875,417.3203125)"/>
<path d="M0 0 C9.33707997 5.96707429 16.95325004 14.34848955 19.55078125 25.328125 C21.36769944 36.13483841 20.42899667 47.7327132 13.9765625 56.86328125 C6.84277847 65.08052395 0.5392717 69.3916893 -10 72 C-11.94591307 70.05408693 -11.43597661 66.84507544 -11.5625 64.25 C-11.55579009 57.66087114 -11.55579009 57.66087114 -9.28515625 54.9609375 C-6.54262577 53.26483366 -4.2633437 52 -1 52 C-0.57074219 51.13761719 -0.57074219 51.13761719 -0.1328125 50.2578125 C0.58485299 48.82743094 1.31750433 47.40438969 2.0703125 45.9921875 C4.91061773 40.29053775 6.12523028 35.34397073 5 29 C2.70317563 22.54253475 -0.56357286 16.44699793 -6.7421875 13.0390625 C-13.38060844 10.13308707 -20.46104263 9.90166621 -27.3125 12.25 C-33.80697776 15.07254969 -36.8566086 18.82548118 -40 25 C-42.05261083 31.15783248 -42.11793143 38.50989488 -39.3125 44.4375 C-36.64488655 48.95840279 -33.53010643 52.1930782 -28.859375 54.65625 C-26 57 -26 57 -25.4140625 60.671875 C-25.45369207 62.0324902 -25.52491907 63.39249197 -25.625 64.75 C-25.65207031 65.44738281 -25.67914063 66.14476562 -25.70703125 66.86328125 C-25.77745217 68.57685705 -25.88507087 70.28883302 -26 72 C-36.69658495 69.65523712 -44.68893841 63.9551455 -51 55 C-56.37439363 46.20231274 -58.42673443 36.69717231 -56.53515625 26.4921875 C-53.41611863 14.71735909 -46.7792649 6.01777313 -36.4375 -0.3125 C-25.29491044 -5.78249851 -10.87879716 -6.42838014 0 0 Z " fill="#FEFEFE" transform="translate(238,416)"/>
</svg>
